<?xml version="1.0" encoding="UTF-8" standalone="no"?>
<svg
   xmlns:dc="http://purl.org/dc/elements/1.1/"
   xmlns:cc="http://creativecommons.org/ns#"
   xmlns:rdf="http://www.w3.org/1999/02/22-rdf-syntax-ns#"
   xmlns:svg="http://www.w3.org/2000/svg"
   xmlns="http://www.w3.org/2000/svg"
   xmlns:xlink="http://www.w3.org/1999/xlink"
   xmlns:sodipodi="http://sodipodi.sourceforge.net/DTD/sodipodi-0.dtd"
   xmlns:inkscape="http://www.inkscape.org/namespaces/inkscape"
   version="1.1"
   id="Layer_1"
   x="0px"
   y="0px"
   width="450.21088"
   height="338.62378"
   viewBox="0 0 450.21088 338.62378"
   enable-background="new 0 0 256 256"
   xml:space="preserve"
   inkscape:version="0.48.5 r10040"
   sodipodi:docname="Huhn.svg"><metadata
     id="metadata8"><rdf:RDF><cc:Work
         rdf:about=""><dc:format>image/svg+xml</dc:format><dc:type
           rdf:resource="http://purl.org/dc/dcmitype/StillImage" /><dc:title></dc:title></cc:Work></rdf:RDF></metadata><defs
     id="defs6" /><sodipodi:namedview
     pagecolor="#ffffff"
     bordercolor="#666666"
     borderopacity="1"
     objecttolerance="10"
     gridtolerance="10"
     guidetolerance="10"
     inkscape:pageopacity="0"
     inkscape:pageshadow="2"
     inkscape:window-width="1920"
     inkscape:window-height="1036"
     id="namedview4"
     showgrid="false"
     inkscape:object-nodes="true"
     fit-margin-top="0"
     fit-margin-left="0"
     fit-margin-right="0"
     fit-margin-bottom="0"
     inkscape:zoom="1.84375"
     inkscape:cx="249.13714"
     inkscape:cy="168.8863"
     inkscape:window-x="0"
     inkscape:window-y="44"
     inkscape:window-maximized="0"
     inkscape:current-layer="Layer_1" /><g
     id="g4148"
     transform="translate(5.0660807,207.19322)"><g
       inkscape:label="stay"
       id="layer11"><path
         sodipodi:nodetypes="czzc"
         inkscape:connector-curvature="0"
         id="path4253"
         d="m 228.21443,198.93115 c 0,0 0,28.3769 0,34.18103 0,5.80413 2.10183,17.90232 5.9375,3.58739 3.83567,-14.31493 5.9375,10.57972 5.9375,14.94368"
         style="fill:none;stroke:#000000;stroke-width:1px;stroke-linecap:butt;stroke-linejoin:miter;stroke-opacity:1;display:inline"
         transform="translate(-220.62782,-173.41319)" /><path
         style="fill:none;stroke:#000000;stroke-width:1px;stroke-linecap:butt;stroke-linejoin:miter;stroke-opacity:1;display:inline"
         d="m 228.21443,304.35535 c 0,0 0,-28.3769 0,-34.18103 0,-5.80413 2.10183,-17.90232 5.9375,-3.58739 3.83567,14.31493 5.9375,-10.57972 5.9375,-14.94368"
         id="path4282"
         inkscape:connector-curvature="0"
         sodipodi:nodetypes="czzc"
         transform="translate(-220.62782,-173.41319)" /></g><g
       transform="translate(-220.62782,-173.41319)"
       style="display:inline"
       inkscape:label="move"
       id="layer6"><path
         sodipodi:nodetypes="czzc"
         inkscape:connector-curvature="0"
         id="path3928"
         d="m 263.64533,198.9312 c 4.39408,0 12.87622,-3.02246 8.97978,-8.78248 -3.89644,-5.76002 9.7487,-11.62889 14.14517,-8.06132 4.39647,3.56757 -5.40625,16.84375 -5.40625,16.84375"
         style="fill:none;stroke:#000000;stroke-width:1px;stroke-linecap:butt;stroke-linejoin:miter;stroke-opacity:1;display:inline"
         transform="translate(0,-2.5390623e-6)" /><use
         height="1052.3622"
         width="744.09448"
         transform="matrix(-1,0,0,-1,562.72806,397.8623)"
         id="use3930"
         xlink:href="#path3928"
         y="0"
         x="0"
         style="display:inline" /><path
         style="fill:none;stroke:#000000;stroke-width:1px;stroke-linecap:butt;stroke-linejoin:miter;stroke-opacity:1"
         d="m 334.51364,198.93115 c 0,0 0,28.3769 0,34.18103 0,5.80413 2.10183,17.90232 5.9375,3.58739 3.83567,-14.31493 5.9375,10.57972 5.9375,14.94368"
         id="path4284"
         inkscape:connector-curvature="0"
         sodipodi:nodetypes="czzc" /><path
         sodipodi:nodetypes="czzc"
         inkscape:connector-curvature="0"
         id="path4286"
         d="m 334.51364,304.35535 c 0,0 0,-28.3769 0,-34.18103 0,-5.80413 2.10183,-17.90232 5.9375,-3.58739 3.83567,14.31493 5.9375,-10.57972 5.9375,-14.94368"
         style="fill:none;stroke:#000000;stroke-width:1px;stroke-linecap:butt;stroke-linejoin:miter;stroke-opacity:1" /><path
         inkscape:connector-curvature="0"
         sodipodi:insensitive="true"
         id="tileWidth"
         d="m 228.21443,304.35535 106.29921,0"
         style="fill:none;stroke:#000000;stroke-width:1px;stroke-linecap:butt;stroke-linejoin:miter;stroke-opacity:1" /><text
         transform="scale(1.0556955,0.94724283)"
         sodipodi:linespacing="125%"
         id="text4290"
         y="298.07895"
         x="266.47726"
         style="font-size:87.67693329px;font-style:normal;font-variant:normal;font-weight:normal;font-stretch:normal;text-align:center;line-height:125%;letter-spacing:0px;word-spacing:0px;text-anchor:middle;fill:#ff0000;fill-opacity:1;stroke:none;font-family:Asana Math;-inkscape-font-specification:Asana Math"
         xml:space="preserve"><tspan
           style="font-style:normal;font-variant:normal;font-weight:normal;font-stretch:normal;font-family:Asana Math;-inkscape-font-specification:Asana Math"
           y="298.07895"
           x="266.47726"
           id="text"
           sodipodi:role="line">H</tspan></text>
</g><g
       transform="translate(-220.62782,-173.41319)"
       style="display:none"
       inkscape:label="b13"
       id="layer5"><path
         sodipodi:nodetypes="ccc"
         inkscape:connector-curvature="0"
         id="path4041"
         d="m 245.86353,198.93119 c 5.2461,0 12.22568,-17.71875 16.50977,-17.71875 4.28409,0 -4.06837,17.71875 1.17773,17.71875"
         style="fill:none;stroke:#000000;stroke-width:1px;stroke-linecap:butt;stroke-linejoin:miter;stroke-opacity:1;display:inline" /><path
         style="fill:none;stroke:#000000;stroke-width:1px;stroke-linecap:butt;stroke-linejoin:miter;stroke-opacity:1;display:inline"
         d="m 316.86453,198.9311 c -5.2461,0 -12.22568,17.71875 -16.50977,17.71875 -4.28409,0 4.06837,-17.71875 -1.17773,-17.71875"
         id="path4043"
         inkscape:connector-curvature="0"
         sodipodi:nodetypes="ccc" /></g><g
       transform="translate(-220.62782,-173.41319)"
       id="g4121"
       inkscape:label="b23"
       style="display:none"><path
         style="fill:none;stroke:#000000;stroke-width:1px;stroke-linecap:butt;stroke-linejoin:miter;stroke-opacity:1;display:inline"
         d="m 228.27032,198.9312 c 5.2461,0 12.22568,-17.71875 16.50977,-17.71875 4.28409,0 -4.06837,17.71875 1.17773,17.71875"
         id="path4123"
         inkscape:connector-curvature="0"
         sodipodi:nodetypes="ccc" /><path
         sodipodi:nodetypes="ccc"
         inkscape:connector-curvature="0"
         id="path4125"
         d="m 334.42868,198.9311 c -5.2461,0 -12.22568,17.71875 -16.50977,17.71875 -4.28409,0 4.06837,-17.71875 -1.17773,-17.71875"
         style="fill:none;stroke:#000000;stroke-width:1px;stroke-linecap:butt;stroke-linejoin:miter;stroke-opacity:1;display:inline" /></g><g
       transform="translate(-220.62782,-173.41319)"
       style="display:inline"
       inkscape:label="b17"
       id="layer7"><path
         style="fill:none;stroke:#000000;stroke-width:1px;stroke-linecap:butt;stroke-linejoin:miter;stroke-opacity:1;display:inline"
         d="m 245.86353,198.93119 c 5.2461,0 12.22568,17.71875 16.50977,17.71875 4.28409,0 -4.06837,-17.71875 1.17773,-17.71875"
         id="path4051"
         inkscape:connector-curvature="0"
         sodipodi:nodetypes="ccc" /><path
         sodipodi:nodetypes="ccc"
         inkscape:connector-curvature="0"
         id="path4053"
         d="m 316.86453,198.9311 c -5.2461,0 -12.22568,-17.71875 -16.50977,-17.71875 -4.28409,0 4.06837,17.71875 -1.17773,17.71875"
         style="fill:none;stroke:#000000;stroke-width:1px;stroke-linecap:butt;stroke-linejoin:miter;stroke-opacity:1;display:inline" /></g><g
       transform="translate(-220.62782,-173.41319)"
       id="g4115"
       inkscape:label="b27"
       style="display:none"><path
         sodipodi:nodetypes="ccc"
         inkscape:connector-curvature="0"
         id="path4117"
         d="m 228.24129,198.9312 c 5.2461,0 12.22568,17.71875 16.50977,17.71875 4.28409,0 -4.06837,-17.71875 1.17773,-17.71875"
         style="fill:none;stroke:#000000;stroke-width:1px;stroke-linecap:butt;stroke-linejoin:miter;stroke-opacity:1;display:inline" /><path
         style="fill:none;stroke:#000000;stroke-width:1px;stroke-linecap:butt;stroke-linejoin:miter;stroke-opacity:1;display:inline"
         d="m 334.42868,198.9311 c -5.2461,0 -12.22568,-17.71875 -16.50977,-17.71875 -4.28409,0 4.06837,17.71875 -1.17773,17.71875"
         id="path4119"
         inkscape:connector-curvature="0"
         sodipodi:nodetypes="ccc" /></g><g
       transform="translate(-220.62782,-173.41319)"
       style="display:none"
       inkscape:label="b12"
       id="layer4"><path
         style="fill:none;stroke:#000000;stroke-width:1px;stroke-linecap:butt;stroke-linejoin:miter;stroke-opacity:1;display:inline"
         d="m 263.64533,198.93119 c -5.2461,0 -12.22568,-17.71875 -16.50977,-17.71875 -4.28409,0 4.06837,17.71875 -1.17773,17.71875"
         id="path4019"
         inkscape:connector-curvature="0"
         sodipodi:nodetypes="ccc" /><path
         sodipodi:nodetypes="ccc"
         inkscape:connector-curvature="0"
         id="path4039"
         d="m 299.08273,198.9311 c 5.2461,0 12.22568,17.71875 16.50977,17.71875 4.28409,0 -4.06837,-17.71875 1.17773,-17.71875"
         style="fill:none;stroke:#000000;stroke-width:1px;stroke-linecap:butt;stroke-linejoin:miter;stroke-opacity:1;display:inline" /></g><g
       transform="translate(-220.62782,-173.41319)"
       id="g4109"
       inkscape:label="b22"
       style="display:none"><path
         sodipodi:nodetypes="ccc"
         inkscape:connector-curvature="0"
         id="path4111"
         d="m 245.99045,198.9323 c -5.2461,0 -12.22568,-17.71875 -16.50977,-17.71875 -4.28409,0 4.06837,17.71875 -1.17773,17.71875"
         style="fill:none;stroke:#000000;stroke-width:1px;stroke-linecap:butt;stroke-linejoin:miter;stroke-opacity:1;display:inline" /><path
         style="fill:none;stroke:#000000;stroke-width:1px;stroke-linecap:butt;stroke-linejoin:miter;stroke-opacity:1;display:inline"
         d="m 316.7702,198.9311 c 5.2461,0 12.22568,17.71875 16.50977,17.71875 4.28409,0 -4.06837,-17.71875 1.17773,-17.71875"
         id="path4113"
         inkscape:connector-curvature="0"
         sodipodi:nodetypes="ccc" /></g><g
       transform="translate(-220.62782,-173.41319)"
       style="display:none"
       inkscape:label="b16"
       id="layer8"><path
         sodipodi:nodetypes="ccc"
         inkscape:connector-curvature="0"
         id="path4058"
         d="m 263.64533,198.9312 c -5.2461,0 -12.22568,17.71875 -16.50977,17.71875 -4.28409,0 4.06837,-17.71875 -1.17773,-17.71875"
         style="fill:none;stroke:#000000;stroke-width:1px;stroke-linecap:butt;stroke-linejoin:miter;stroke-opacity:1;display:inline" /><path
         style="fill:none;stroke:#000000;stroke-width:1px;stroke-linecap:butt;stroke-linejoin:miter;stroke-opacity:1;display:inline"
         d="m 299.08273,198.9311 c 5.2461,0 12.22568,-17.71875 16.50977,-17.71875 4.28409,0 -4.06837,17.71875 1.17773,17.71875"
         id="path4060"
         inkscape:connector-curvature="0"
         sodipodi:nodetypes="ccc" /></g><g
       transform="translate(-220.62782,-173.41319)"
       id="g4103"
       inkscape:label="b26"
       style="display:none"><path
         style="fill:none;stroke:#000000;stroke-width:1px;stroke-linecap:butt;stroke-linejoin:miter;stroke-opacity:1;display:inline"
         d="m 245.92879,198.9312 c -5.2461,0 -12.22568,17.71875 -16.50977,17.71875 -4.28409,0 4.06837,-17.71875 -1.17773,-17.71875"
         id="path4105"
         inkscape:connector-curvature="0"
         sodipodi:nodetypes="ccc" /><path
         sodipodi:nodetypes="ccc"
         inkscape:connector-curvature="0"
         id="path4107"
         d="m 316.74118,198.9311 c 5.2461,0 12.22568,-17.71875 16.50977,-17.71875 4.28409,0 -4.06837,17.71875 1.17773,17.71875"
         style="fill:none;stroke:#000000;stroke-width:1px;stroke-linecap:butt;stroke-linejoin:miter;stroke-opacity:1;display:inline" /></g><g
       transform="translate(-220.62782,-173.41319)"
       style="display:none"
       inkscape:label="b11"
       id="layer3"><path
         sodipodi:nodetypes="czc"
         inkscape:connector-curvature="0"
         id="path3936-7"
         d="m 263.64533,198.9312 c -17.50196,0 10.03995,-11.37109 -8.84375,-11.37109 -18.8837,0 8.75587,11.37109 -8.84375,11.37109"
         style="fill:none;stroke:#000000;stroke-width:1px;stroke-linecap:butt;stroke-linejoin:miter;stroke-opacity:1;display:inline"
         transform="translate(0,-5.0781246e-6)" /><path
         style="fill:none;stroke:#000000;stroke-width:1px;stroke-linecap:butt;stroke-linejoin:miter;stroke-opacity:1;display:inline"
         d="m 299.08273,198.9311 c 17.50195,0 -10.03996,11.37109 8.84375,11.37109 18.8837,0 -8.75587,-11.37109 8.84375,-11.37109"
         id="path3993"
         inkscape:connector-curvature="0"
         sodipodi:nodetypes="czc"
         transform="translate(0,-5.0781246e-6)" /></g><g
       transform="translate(-220.62782,-173.41319)"
       id="g4097"
       inkscape:label="b21"
       style="display:none"><path
         style="fill:none;stroke:#000000;stroke-width:1px;stroke-linecap:butt;stroke-linejoin:miter;stroke-opacity:1;display:inline"
         d="m 245.95782,198.9312 c -17.50196,0 10.03995,-11.37109 -8.84375,-11.37109 -18.8837,0 8.75587,11.37109 -8.84375,11.37109"
         id="path4099"
         inkscape:connector-curvature="0"
         sodipodi:nodetypes="czc" /><path
         sodipodi:nodetypes="czc"
         inkscape:connector-curvature="0"
         id="path4101"
         d="m 316.7702,198.9311 c 17.50195,0 -10.03996,11.37109 8.84375,11.37109 18.8837,0 -8.75587,-11.37109 8.84375,-11.37109"
         style="fill:none;stroke:#000000;stroke-width:1px;stroke-linecap:butt;stroke-linejoin:miter;stroke-opacity:1;display:inline" /></g><g
       transform="translate(-220.62782,-173.41319)"
       style="display:none"
       inkscape:label="b15"
       id="layer9"><path
         style="fill:none;stroke:#000000;stroke-width:1px;stroke-linecap:butt;stroke-linejoin:miter;stroke-opacity:1;display:inline"
         d="m 263.64533,198.93109 c -17.50196,0 10.03995,11.37109 -8.84375,11.37109 -18.8837,0 8.75587,-11.37109 -8.84375,-11.37109"
         id="path4067"
         inkscape:connector-curvature="0"
         sodipodi:nodetypes="czc" /><path
         sodipodi:nodetypes="czc"
         inkscape:connector-curvature="0"
         id="path4069"
         d="m 299.08273,198.93119 c 17.50195,0 -10.03996,-11.37109 8.84375,-11.37109 18.8837,0 -8.75587,11.37109 8.84375,11.37109"
         style="fill:none;stroke:#000000;stroke-width:1px;stroke-linecap:butt;stroke-linejoin:miter;stroke-opacity:1;display:inline" /></g><g
       transform="translate(-220.62782,-173.41319)"
       id="g4091"
       inkscape:label="b25"
       style="display:none"><path
         sodipodi:nodetypes="czc"
         inkscape:connector-curvature="0"
         id="path4093"
         d="m 245.95782,198.9312 c -17.50196,0 10.03995,11.37109 -8.84375,11.37109 -18.8837,0 8.75587,-11.37109 -8.84375,-11.37109"
         style="fill:none;stroke:#000000;stroke-width:1px;stroke-linecap:butt;stroke-linejoin:miter;stroke-opacity:1;display:inline" /><path
         style="fill:none;stroke:#000000;stroke-width:1px;stroke-linecap:butt;stroke-linejoin:miter;stroke-opacity:1;display:inline"
         d="m 316.74118,198.9311 c 17.50195,0 -10.03996,-11.37109 8.84375,-11.37109 18.8837,0 -8.75587,11.37109 8.84375,11.37109"
         id="path4095"
         inkscape:connector-curvature="0"
         sodipodi:nodetypes="czc" /></g><g
       transform="translate(-220.62782,-173.41319)"
       style="display:none"
       inkscape:label="b10"
       id="layer2"><path
         sodipodi:nodetypes="ccc"
         inkscape:connector-curvature="0"
         id="path3936"
         d="m 263.64533,198.9312 c -5.2461,0 -4.55966,-17.71875 -8.84375,-17.71875 -4.28409,0 -3.59765,17.71875 -8.84375,17.71875"
         style="fill:none;stroke:#000000;stroke-width:1px;stroke-linecap:butt;stroke-linejoin:miter;stroke-opacity:1"
         transform="translate(0,-2.5390623e-6)" /><path
         style="fill:none;stroke:#000000;stroke-width:1px;stroke-linecap:butt;stroke-linejoin:miter;stroke-opacity:1"
         d="m 299.08273,198.9311 c 5.2461,0 4.55966,17.71875 8.84375,17.71875 4.28409,0 3.59765,-17.71875 8.84375,-17.71875"
         id="path3947"
         inkscape:connector-curvature="0"
         sodipodi:nodetypes="ccc"
         transform="translate(0,-2.5390623e-6)" /></g><g
       transform="translate(-220.62782,-173.41319)"
       id="g4085"
       inkscape:label="b20"
       style="display:inline"><path
         style="fill:none;stroke:#000000;stroke-width:1px;stroke-linecap:butt;stroke-linejoin:miter;stroke-opacity:1"
         d="m 245.95782,198.9312 c -5.2461,0 -4.55966,-17.71875 -8.84375,-17.71875 -4.28409,0 -3.59765,17.71875 -8.84375,17.71875"
         id="path4087"
         inkscape:connector-curvature="0"
         sodipodi:nodetypes="ccc" /><path
         sodipodi:nodetypes="ccc"
         inkscape:connector-curvature="0"
         id="path4089"
         d="m 316.74118,198.9311 c 5.2461,0 4.55966,17.71875 8.84375,17.71875 4.28409,0 3.59765,-17.71875 8.84375,-17.71875"
         style="fill:none;stroke:#000000;stroke-width:1px;stroke-linecap:butt;stroke-linejoin:miter;stroke-opacity:1" /></g><g
       transform="translate(-220.62782,-173.41319)"
       style="display:none"
       inkscape:label="b14"
       id="layer10"><path
         style="fill:none;stroke:#000000;stroke-width:1px;stroke-linecap:butt;stroke-linejoin:miter;stroke-opacity:1;display:inline"
         d="m 263.64533,198.9311 c -5.2461,0 -4.55966,17.71875 -8.84375,17.71875 -4.28409,0 -3.59765,-17.71875 -8.84375,-17.71875"
         id="path4073"
         inkscape:connector-curvature="0"
         sodipodi:nodetypes="ccc" /><path
         sodipodi:nodetypes="ccc"
         inkscape:connector-curvature="0"
         id="path4075"
         d="m 299.08273,198.9312 c 5.2461,0 4.55966,-17.71875 8.84375,-17.71875 4.28409,0 3.59765,17.71875 8.84375,17.71875"
         style="fill:none;stroke:#000000;stroke-width:1px;stroke-linecap:butt;stroke-linejoin:miter;stroke-opacity:1;display:inline" /></g><g
       transform="translate(-220.62782,-173.41319)"
       id="g4079"
       inkscape:label="b24"
       style="display:none"><path
         sodipodi:nodetypes="ccc"
         inkscape:connector-curvature="0"
         id="path4081"
         d="m 245.95783,198.9312 c -5.2461,0 -4.55966,17.71875 -8.84375,17.71875 -4.28409,0 -3.59765,-17.71875 -8.84375,-17.71875"
         style="fill:none;stroke:#000000;stroke-width:1px;stroke-linecap:butt;stroke-linejoin:miter;stroke-opacity:1;display:inline" /><path
         style="fill:none;stroke:#000000;stroke-width:1px;stroke-linecap:butt;stroke-linejoin:miter;stroke-opacity:1;display:inline"
         d="m 316.77023,198.9311 c 5.2461,0 4.55966,-17.71875 8.84375,-17.71875 4.28409,0 3.59765,17.71875 8.84375,17.71875"
         id="path4083"
         inkscape:connector-curvature="0"
         sodipodi:nodetypes="ccc" /></g><g
       transform="translate(-114.32861,-173.41319)"
       style="display:inline"
       inkscape:label="move"
       id="g4063"><path
         sodipodi:nodetypes="czzc"
         inkscape:connector-curvature="0"
         id="path4065"
         d="m 263.64533,198.9312 c 4.39408,0 12.87622,-3.02246 8.97978,-8.78248 -3.89644,-5.76002 9.7487,-11.62889 14.14517,-8.06132 4.39647,3.56757 -5.40625,16.84375 -5.40625,16.84375"
         style="fill:none;stroke:#000000;stroke-width:1px;stroke-linecap:butt;stroke-linejoin:miter;stroke-opacity:1;display:inline"
         transform="translate(0,-2.5390623e-6)" /><use
         height="1052.3622"
         width="744.09448"
         transform="matrix(-1,0,0,-1,562.72806,397.8623)"
         id="use4067"
         xlink:href="#path3928"
         y="0"
         x="0"
         style="display:inline" /><path
         style="fill:none;stroke:#000000;stroke-width:1px;stroke-linecap:butt;stroke-linejoin:miter;stroke-opacity:1"
         d="m 334.51364,198.93115 c 0,0 0,28.3769 0,34.18103 0,5.80413 2.10183,17.90232 5.9375,3.58739 3.83567,-14.31493 5.9375,10.57972 5.9375,14.94368"
         id="path4070"
         inkscape:connector-curvature="0"
         sodipodi:nodetypes="czzc" /><path
         sodipodi:nodetypes="czzc"
         inkscape:connector-curvature="0"
         id="path4072"
         d="m 334.51364,304.35535 c 0,0 0,-28.3769 0,-34.18103 0,-5.80413 2.10183,-17.90232 5.9375,-3.58739 3.83567,14.31493 5.9375,-10.57972 5.9375,-14.94368"
         style="fill:none;stroke:#000000;stroke-width:1px;stroke-linecap:butt;stroke-linejoin:miter;stroke-opacity:1" /><path
         inkscape:connector-curvature="0"
         sodipodi:insensitive="true"
         id="path4074"
         d="m 228.21443,304.35535 106.29921,0"
         style="fill:none;stroke:#000000;stroke-width:1px;stroke-linecap:butt;stroke-linejoin:miter;stroke-opacity:1" /><text
         transform="scale(1.0556955,0.94724283)"
         sodipodi:linespacing="125%"
         id="text4076"
         y="298.07895"
         x="266.47726"
         style="font-size:87.67693329px;font-style:normal;font-variant:normal;font-weight:normal;font-stretch:normal;text-align:center;line-height:125%;letter-spacing:0px;word-spacing:0px;text-anchor:middle;fill:#ff0000;fill-opacity:1;stroke:none;font-family:Asana Math;-inkscape-font-specification:Asana Math"
         xml:space="preserve"><tspan
           style="font-style:normal;font-variant:normal;font-weight:normal;font-stretch:normal;font-family:Asana Math;-inkscape-font-specification:Asana Math"
           y="298.07895"
           x="266.47726"
           id="tspan4078"
           sodipodi:role="line">u</tspan></text>
</g><g
       transform="translate(-114.32861,-173.41319)"
       style="display:inline"
       inkscape:label="b14"
       id="g4080"><path
         style="fill:none;stroke:#000000;stroke-width:1px;stroke-linecap:butt;stroke-linejoin:miter;stroke-opacity:1;display:inline"
         d="m 263.64533,198.9311 c -5.2461,0 -4.55966,17.71875 -8.84375,17.71875 -4.28409,0 -3.59765,-17.71875 -8.84375,-17.71875"
         id="path4082"
         inkscape:connector-curvature="0"
         sodipodi:nodetypes="ccc" /><path
         sodipodi:nodetypes="ccc"
         inkscape:connector-curvature="0"
         id="path4084"
         d="m 299.08273,198.9312 c 5.2461,0 4.55966,-17.71875 8.84375,-17.71875 4.28409,0 3.59765,17.71875 8.84375,17.71875"
         style="fill:none;stroke:#000000;stroke-width:1px;stroke-linecap:butt;stroke-linejoin:miter;stroke-opacity:1;display:inline" /></g><g
       transform="translate(-114.32861,-173.41319)"
       id="g4086"
       inkscape:label="b22"
       style="display:inline"><path
         sodipodi:nodetypes="ccc"
         inkscape:connector-curvature="0"
         id="path4088"
         d="m 245.99045,198.9323 c -5.2461,0 -12.22568,-17.71875 -16.50977,-17.71875 -4.28409,0 4.06837,17.71875 -1.17773,17.71875"
         style="fill:none;stroke:#000000;stroke-width:1px;stroke-linecap:butt;stroke-linejoin:miter;stroke-opacity:1;display:inline" /><path
         style="fill:none;stroke:#000000;stroke-width:1px;stroke-linecap:butt;stroke-linejoin:miter;stroke-opacity:1;display:inline"
         d="m 316.7702,198.9311 c 5.2461,0 12.22568,17.71875 16.50977,17.71875 4.28409,0 -4.06837,-17.71875 1.17773,-17.71875"
         id="path4090"
         inkscape:connector-curvature="0"
         sodipodi:nodetypes="ccc" /></g><g
       transform="translate(-8.0294008,-173.41319)"
       style="display:inline"
       inkscape:label="move"
       id="g4092"><path
         sodipodi:nodetypes="czzc"
         inkscape:connector-curvature="0"
         id="path4094"
         d="m 263.64533,198.9312 c 4.39408,0 12.87622,-3.02246 8.97978,-8.78248 -3.89644,-5.76002 9.7487,-11.62889 14.14517,-8.06132 4.39647,3.56757 -5.40625,16.84375 -5.40625,16.84375"
         style="fill:none;stroke:#000000;stroke-width:1px;stroke-linecap:butt;stroke-linejoin:miter;stroke-opacity:1;display:inline"
         transform="translate(0,-2.5390623e-6)" /><use
         height="1052.3622"
         width="744.09448"
         transform="matrix(-1,0,0,-1,562.72806,397.8623)"
         id="use4096"
         xlink:href="#path3928"
         y="0"
         x="0"
         style="display:inline" /><path
         style="fill:none;stroke:#000000;stroke-width:1px;stroke-linecap:butt;stroke-linejoin:miter;stroke-opacity:1"
         d="m 334.51364,198.93115 c 0,0 0,28.3769 0,34.18103 0,5.80413 2.10183,17.90232 5.9375,3.58739 3.83567,-14.31493 5.9375,10.57972 5.9375,14.94368"
         id="path4098"
         inkscape:connector-curvature="0"
         sodipodi:nodetypes="czzc" /><path
         sodipodi:nodetypes="czzc"
         inkscape:connector-curvature="0"
         id="path4100"
         d="m 334.51364,304.35535 c 0,0 0,-28.3769 0,-34.18103 0,-5.80413 2.10183,-17.90232 5.9375,-3.58739 3.83567,14.31493 5.9375,-10.57972 5.9375,-14.94368"
         style="fill:none;stroke:#000000;stroke-width:1px;stroke-linecap:butt;stroke-linejoin:miter;stroke-opacity:1" /><path
         inkscape:connector-curvature="0"
         sodipodi:insensitive="true"
         id="path4102"
         d="m 228.21443,304.35535 106.29921,0"
         style="fill:none;stroke:#000000;stroke-width:1px;stroke-linecap:butt;stroke-linejoin:miter;stroke-opacity:1" /><text
         transform="scale(1.0556955,0.94724283)"
         sodipodi:linespacing="125%"
         id="text4104"
         y="298.07895"
         x="266.47726"
         style="font-size:87.67693329px;font-style:normal;font-variant:normal;font-weight:normal;font-stretch:normal;text-align:center;line-height:125%;letter-spacing:0px;word-spacing:0px;text-anchor:middle;fill:#ff0000;fill-opacity:1;stroke:none;font-family:Asana Math;-inkscape-font-specification:Asana Math"
         xml:space="preserve"><tspan
           style="font-style:normal;font-variant:normal;font-weight:normal;font-stretch:normal;font-family:Asana Math;-inkscape-font-specification:Asana Math"
           y="298.07895"
           x="266.47726"
           id="tspan4106"
           sodipodi:role="line">h</tspan></text>
</g><g
       transform="translate(-8.0294008,-173.41319)"
       style="display:inline"
       inkscape:label="b17"
       id="g4108"><path
         style="fill:none;stroke:#000000;stroke-width:1px;stroke-linecap:butt;stroke-linejoin:miter;stroke-opacity:1;display:inline"
         d="m 245.86353,198.93119 c 5.2461,0 12.22568,17.71875 16.50977,17.71875 4.28409,0 -4.06837,-17.71875 1.17773,-17.71875"
         id="path4110"
         inkscape:connector-curvature="0"
         sodipodi:nodetypes="ccc" /><path
         sodipodi:nodetypes="ccc"
         inkscape:connector-curvature="0"
         id="path4112"
         d="m 316.86453,198.9311 c -5.2461,0 -12.22568,-17.71875 -16.50977,-17.71875 -4.28409,0 4.06837,17.71875 -1.17773,17.71875"
         style="fill:none;stroke:#000000;stroke-width:1px;stroke-linecap:butt;stroke-linejoin:miter;stroke-opacity:1;display:inline" /></g><g
       transform="translate(-8.0294008,-173.41319)"
       id="g4114"
       inkscape:label="b20"
       style="display:inline"><path
         style="fill:none;stroke:#000000;stroke-width:1px;stroke-linecap:butt;stroke-linejoin:miter;stroke-opacity:1"
         d="m 245.95782,198.9312 c -5.2461,0 -4.55966,-17.71875 -8.84375,-17.71875 -4.28409,0 -3.59765,17.71875 -8.84375,17.71875"
         id="path4116"
         inkscape:connector-curvature="0"
         sodipodi:nodetypes="ccc" /><path
         sodipodi:nodetypes="ccc"
         inkscape:connector-curvature="0"
         id="path4118"
         d="m 316.74118,198.9311 c 5.2461,0 4.55966,17.71875 8.84375,17.71875 4.28409,0 3.59765,-17.71875 8.84375,-17.71875"
         style="fill:none;stroke:#000000;stroke-width:1px;stroke-linecap:butt;stroke-linejoin:miter;stroke-opacity:1" /></g><g
       transform="translate(98.269809,-173.41319)"
       style="display:inline"
       inkscape:label="move"
       id="g4120"><path
         sodipodi:nodetypes="czzc"
         inkscape:connector-curvature="0"
         id="path4122"
         d="m 263.64533,198.9312 c 4.39408,0 12.87622,-3.02246 8.97978,-8.78248 -3.89644,-5.76002 9.7487,-11.62889 14.14517,-8.06132 4.39647,3.56757 -5.40625,16.84375 -5.40625,16.84375"
         style="fill:none;stroke:#000000;stroke-width:1px;stroke-linecap:butt;stroke-linejoin:miter;stroke-opacity:1;display:inline"
         transform="translate(0,-2.5390623e-6)" /><use
         height="1052.3622"
         width="744.09448"
         transform="matrix(-1,0,0,-1,562.72806,397.8623)"
         id="use4124"
         xlink:href="#path3928"
         y="0"
         x="0"
         style="display:inline" /><path
         style="fill:none;stroke:#000000;stroke-width:1px;stroke-linecap:butt;stroke-linejoin:miter;stroke-opacity:1"
         d="m 334.51364,198.93115 c 0,0 0,28.3769 0,34.18103 0,5.80413 2.10183,17.90232 5.9375,3.58739 3.83567,-14.31493 5.9375,10.57972 5.9375,14.94368"
         id="path4126"
         inkscape:connector-curvature="0"
         sodipodi:nodetypes="czzc" /><path
         sodipodi:nodetypes="czzc"
         inkscape:connector-curvature="0"
         id="path4128"
         d="m 334.51364,304.35535 c 0,0 0,-28.3769 0,-34.18103 0,-5.80413 2.10183,-17.90232 5.9375,-3.58739 3.83567,14.31493 5.9375,-10.57972 5.9375,-14.94368"
         style="fill:none;stroke:#000000;stroke-width:1px;stroke-linecap:butt;stroke-linejoin:miter;stroke-opacity:1" /><path
         inkscape:connector-curvature="0"
         sodipodi:insensitive="true"
         id="path4130"
         d="m 228.21443,304.35535 106.29921,0"
         style="fill:none;stroke:#000000;stroke-width:1px;stroke-linecap:butt;stroke-linejoin:miter;stroke-opacity:1" /><text
         transform="scale(1.0556955,0.94724283)"
         sodipodi:linespacing="125%"
         id="text4132"
         y="298.07895"
         x="266.47726"
         style="font-size:87.67693329px;font-style:normal;font-variant:normal;font-weight:normal;font-stretch:normal;text-align:center;line-height:125%;letter-spacing:0px;word-spacing:0px;text-anchor:middle;fill:#ff0000;fill-opacity:1;stroke:none;font-family:Asana Math;-inkscape-font-specification:Asana Math"
         xml:space="preserve"><tspan
           style="font-style:normal;font-variant:normal;font-weight:normal;font-stretch:normal;font-family:Asana Math;-inkscape-font-specification:Asana Math"
           y="298.07895"
           x="266.47726"
           id="tspan4134"
           sodipodi:role="line">n</tspan></text>
</g><g
       transform="translate(98.269809,-173.41319)"
       style="display:inline"
       inkscape:label="b15"
       id="g4136"><path
         style="fill:none;stroke:#000000;stroke-width:1px;stroke-linecap:butt;stroke-linejoin:miter;stroke-opacity:1;display:inline"
         d="m 263.64533,198.93109 c -17.50196,0 10.03995,11.37109 -8.84375,11.37109 -18.8837,0 8.75587,-11.37109 -8.84375,-11.37109"
         id="path4138"
         inkscape:connector-curvature="0"
         sodipodi:nodetypes="czc" /><path
         sodipodi:nodetypes="czc"
         inkscape:connector-curvature="0"
         id="path4140"
         d="m 299.08273,198.93119 c 17.50195,0 -10.03996,-11.37109 8.84375,-11.37109 18.8837,0 -8.75587,11.37109 8.84375,11.37109"
         style="fill:none;stroke:#000000;stroke-width:1px;stroke-linecap:butt;stroke-linejoin:miter;stroke-opacity:1;display:inline" /></g><g
       transform="translate(98.269809,-173.41319)"
       id="g4142"
       inkscape:label="b21"
       style="display:inline"><path
         style="fill:none;stroke:#000000;stroke-width:1px;stroke-linecap:butt;stroke-linejoin:miter;stroke-opacity:1;display:inline"
         d="m 245.95782,198.9312 c -17.50196,0 10.03995,-11.37109 -8.84375,-11.37109 -18.8837,0 8.75587,11.37109 -8.84375,11.37109"
         id="path4144"
         inkscape:connector-curvature="0"
         sodipodi:nodetypes="czc" /><path
         sodipodi:nodetypes="czc"
         inkscape:connector-curvature="0"
         id="path4146"
         d="m 316.7702,198.9311 c 17.50195,0 -10.03996,11.37109 8.84375,11.37109 18.8837,0 -8.75587,-11.37109 8.84375,-11.37109"
         style="fill:none;stroke:#000000;stroke-width:1px;stroke-linecap:butt;stroke-linejoin:miter;stroke-opacity:1;display:inline" /></g></g><path
     style="fill:none;stroke:#000000;stroke-width:1;stroke-opacity:1"
     d="m 252.82311,207.34864 c -0.17926,-0.19003 -0.31027,-0.87404 -0.29116,-1.52003 0.0341,-1.15239 -0.0626,-1.17789 -5.12773,-1.35294 -2.83937,-0.0981 -6.74259,-0.45003 -8.67384,-0.78201 -1.93123,-0.33199 -4.75323,-0.80433 -6.27109,-1.04964 -2.75975,-0.44603 -2.75975,-0.44603 -1.07346,-1.29397 0.92745,-0.46635 3.45863,-0.99704 5.62475,-1.1793 2.55965,-0.21537 4.64048,-0.71847 5.94386,-1.43712 1.59905,-0.88163 3.02813,-1.1338 7.05131,-1.24422 6.21711,-0.17063 7.68467,-0.7793 9.57217,-3.97002 1.83809,-3.10725 7.08371,-17.7392 6.90903,-19.27175 -0.0733,-0.64261 -0.88799,-1.65817 -1.86015,-2.31868 -0.95141,-0.6464 -2.59116,-1.8362 -3.64387,-2.64402 -3.7217,-2.85586 -5.5055,-3.84801 -6.75436,-3.7567 -1.95599,0.14301 -1.87748,2.03746 0.28391,6.85103 2.0806,4.63358 2.28199,5.6978 1.07168,5.66204 -1.02963,-0.0304 -3.65914,-2.81817 -3.6287,-3.84703 0.0129,-0.43657 -0.18193,-0.79984 -0.43299,-0.80726 -0.47527,-0.014 -0.85764,2.06978 -1.58532,8.64051 -0.23682,2.13865 -0.61574,3.99534 -0.84199,4.12601 -0.92247,0.53272 -1.65852,-1.57802 -2.06614,-5.925 -0.32301,-3.44405 -0.57197,-4.42723 -0.9925,-3.91944 -1.1269,1.3606 -1.41326,2.80187 -1.92852,9.70599 -0.52522,7.03782 -0.52522,7.03782 -2.11322,4.21995 -1.53234,-2.71918 -1.57475,-2.96096 -1.21094,-6.90365 0.45655,-4.94725 2.91901,-14.08465 4.65475,-17.27218 1.01958,-1.87239 2.7317,-3.51671 5.33096,-5.1198 0.1045,-0.0644 -0.8164,-1.54068 -2.04638,-3.28052 -1.29782,-1.83583 -2.54751,-4.36439 -2.97789,-6.02525 -1.00277,-3.87035 -1.38035,-4.42393 -4.52207,-6.62983 -1.49408,-1.04905 -6.37201,-4.88082 -10.83984,-8.51504 -14.77575,-12.0189 -21.58324,-16.766 -26.42793,-18.42914 -3.37772,-1.15954 -10.73431,-5.02059 -22.23666,-11.67069 -6.05508,-3.50076 -12.07104,-6.66215 -13.36883,-7.025316 -1.29778,-0.363166 -4.01282,-0.616343 -6.03343,-0.562617 -3.62669,0.09643 -3.70552,0.128037 -6.142,2.463103 -2.72572,2.61222 -2.29465,2.56453 -10.77243,1.19186 -2.53117,-0.40983 -2.54132,-0.4058 -5.86691,2.3296 -1.83224,1.50708 -3.66942,2.66513 -4.08265,2.57344 -0.79906,-0.17729 -0.82338,-1.82115 -0.15201,-10.26466 0.32434,-4.079106 0.32434,-4.079106 -1.75496,-6.222964 -2.64642,-2.728569 -2.84017,-4.896031 -0.47349,-5.296729 1.51415,-0.256359 1.52054,-0.271153 1.6237,-3.757588 0.10672,-3.606756 0.63552,-4.677956 2.58328,-5.232953 0.50475,-0.143816 1.34427,-1.155126 1.86564,-2.247356 0.98388,-2.061298 2.54499,-3.236762 3.48009,-2.620386 0.29716,0.195901 0.95359,1.369798 1.45877,2.608657 1.07531,2.637322 0.21154,2.706289 10.05795,-0.802942 17.07611,-6.085871 30.50481,-7.294617 51.01554,-4.592046 7.79502,1.027111 10.79356,1.196823 18.62319,1.054061 14.47801,-0.263986 26.52186,0.264917 37.36829,1.64103 9.90234,1.256321 9.90234,1.256321 13.86507,-0.01098 6.73937,-2.155292 8.84754,-2.527746 17.25819,-3.049025 8.95389,-0.554947 10.40949,-0.946933 15.04749,-4.052233 7.06364,-4.729368 11.58295,-8.733972 14.31876,-12.687985 5.54449,-8.013408 10.16899,-12.627129 15.05006,-15.015015 3.3562,-1.641899 8.82331,-1.441569 12.59881,0.461651 4.86426,2.452037 5.30782,3.64855 3.03189,8.178997 -1.04434,2.078868 -1.36004,3.475472 -1.45353,6.430655 -0.15785,4.993709 -0.74954,6.702756 -3.87249,11.187724 -1.44216,2.071217 -2.63175,4.090228 -2.64349,4.486697 -0.0117,0.396469 0.41074,1.918805 0.93881,3.382971 0.52805,1.464167 0.82336,3.145572 0.65619,3.736447 -0.16713,0.590885 -1.7525,2.824632 -3.52302,4.963907 -5.52475,6.67535 -8.29401,13.935334 -9.00919,23.618995 -0.62282,8.43355 -0.65864,8.54504 -3.79196,11.80587 -3.12629,3.25352 -3.69234,4.6801 -4.35496,10.97572 -0.5676,5.393 -2.68478,12.70665 -4.81352,16.62803 -3.4061,6.27453 -8.49272,9.43448 -22.08969,13.72283 -8.64637,2.72697 -11.06368,3.86533 -13.41668,6.31817 -1.39985,1.45926 -1.98234,2.57762 -2.28116,4.38008 -0.53753,3.24214 -1.32448,5.46687 -2.16612,6.12392 -0.38114,0.29752 -1.91482,0.89381 -3.40824,1.32508 -3.31045,0.95601 -4.05637,2.06338 -7.24275,10.75211 -2.76184,7.531 -3.34234,10.7256 -2.26716,12.47612 1.16874,1.9028 0.97179,3.83385 -0.38692,3.79371 -0.60156,-0.0178 -1.46738,-0.39088 -1.9241,-0.82913 -0.75842,-0.72774 -0.88927,-0.66588 -1.50942,0.71343 -0.96238,2.14048 -3.61635,4.1651 -6.94664,5.29927 -3.12255,1.06344 -3.50325,1.12121 -3.98964,0.60551 z"
     id="path4262"
     inkscape:connector-curvature="0"
     sodipodi:nodetypes="csssssscsscssssssscsccsccscscssssssssscssssccccsssssssssssccsscssssssscssssssssc" /><path
     style="fill:none;stroke:#000000;stroke-width:1px;stroke-linecap:butt;stroke-linejoin:miter;stroke-opacity:1"
     d="m 12.708581,232.71123 c 0,0 -13.9687373,-16.91963 -12.01281232,-27.97102 C 2.6516937,193.68882 0.54921068,189.28256 26.007795,177.89412 51.466379,166.50568 142.15748,212.02485 156.40308,174.44248 170.64868,136.8601 77.189087,131.34308 75.4813,98.889916 73.773513,66.43675 97.261457,52.064804 130.70753,35.226336 164.15361,18.387868 235.99883,31.459395 270.69071,24.4879 305.38259,17.516405 314.77758,2.2609893 338.95647,1.8604833 c 24.17889,-0.400506 53.47768,-8.627419 70.18335,20.7098397 16.70567,29.337259 -43.51465,95.326117 -31.83179,125.409587 11.68286,30.08346 43.53758,19.19311 53.69217,35.28343 10.15459,16.09031 6.79338,49.44779 6.79338,49.44779"
     id="path4283"
     inkscape:connector-curvature="0"
     sodipodi:nodetypes="czzzzzzzzzzc" /></svg>