<?xml version="1.0" encoding="UTF-8" standalone="no"?>
<svg
   xmlns:dc="http://purl.org/dc/elements/1.1/"
   xmlns:cc="http://creativecommons.org/ns#"
   xmlns:rdf="http://www.w3.org/1999/02/22-rdf-syntax-ns#"
   xmlns:svg="http://www.w3.org/2000/svg"
   xmlns="http://www.w3.org/2000/svg"
   xmlns:xlink="http://www.w3.org/1999/xlink"
   xmlns:sodipodi="http://sodipodi.sourceforge.net/DTD/sodipodi-0.dtd"
   xmlns:inkscape="http://www.inkscape.org/namespaces/inkscape"
   version="1.1"
   id="Layer_1"
   x="0px"
   y="0px"
   width="360.76056"
   height="305.11624"
   viewBox="0 0 360.76056 305.11624"
   enable-background="new 0 0 256 256"
   xml:space="preserve"
   inkscape:version="0.48.5 r10040"
   sodipodi:docname="Kuh.svg"><metadata
     id="metadata8"><rdf:RDF><cc:Work
         rdf:about=""><dc:format>image/svg+xml</dc:format><dc:type
           rdf:resource="http://purl.org/dc/dcmitype/StillImage" /></cc:Work></rdf:RDF></metadata><defs
     id="defs6" /><sodipodi:namedview
     pagecolor="#ffffff"
     bordercolor="#666666"
     borderopacity="1"
     objecttolerance="10"
     gridtolerance="10"
     guidetolerance="10"
     inkscape:pageopacity="0"
     inkscape:pageshadow="2"
     inkscape:window-width="1920"
     inkscape:window-height="1036"
     id="namedview4"
     showgrid="false"
     inkscape:object-nodes="true"
     fit-margin-top="0"
     fit-margin-left="0"
     fit-margin-right="0"
     fit-margin-bottom="0"
     inkscape:zoom="1.3037281"
     inkscape:cx="248.16854"
     inkscape:cy="151.05992"
     inkscape:window-x="0"
     inkscape:window-y="44"
     inkscape:window-maximized="0"
     inkscape:current-layer="Layer_1" /><path
     style="fill:#000000;fill-opacity:0.21296297"
     d="M 79.875229,2.4569778e-6 C 78.450419,1.5245698e-4 76.851459,0.02320246 75.000229,0.03120246 c -14.80987,0.0642 -14.83421,0.0633 -13,2.21875004 3.01844,3.54707 4.66016,4.5082 8.59375,5.1875 2.05962,0.35569 3.99247,1.03274 4.28125,1.5 0.5531,0.89494 -9.77515,12.2749095 -20.53125,22.6249995 -6.37905,6.138254 -6.38151,6.150305 -5.21875,10.031245 2.15503,7.19284 2.17356,7.18362 19.21875,8.65625 18.00297,1.55538 20.28247,2.43987 25.8125,9.9375 8.475171,11.49066 17.417681,26.80907 19.312501,33.125 2.11116,7.037033 4.11741,9.191383 9.59375,10.218753 2.28667,0.42898 3.44528,1.26644 3.75,2.75 1.67217,8.14129 2.53125,16.62333 2.53125,24.75 0,11.30358 -1.14274,13.86568 -8.78125,19.84375 -2.904,2.27274 -5.01145,4.56958 -4.6875,5.09375 0.40788,0.65996 4.44717,0.9402 8.15625,0.875 -31.184211,2.72138 -58.153821,1.76768 -81.093751,-5 -26.74321,0 -42.57430984,5.55803 -42.57430984,33.82409 0,3.27719 -1.38881996,116.79615 1.26348004,119.44845 l 346.8563508,-1.2e-4 c 16.62012,-49.24565 23.53052,-132.5808 -26.85802,-142.24112 -15.87287,-2.18432 -31.28341,-4.0209 -46.3125,-5.53125 0.81524,-0.80107 1.00876,-2.11934 1.34375,-4.40625 0.4431,-3.025 0.90309,-12.925 1.03125,-22 0.16437,-11.63874 0.74988,-18.55059 1.96875,-23.40625 1.72795,-6.88377 1.73538,-6.86195 -0.78125,-11.156253 -1.38415,-2.36187 -2.53425,-5.57294 -2.53125,-7.125 0.007,-3.64364 4.7822,-28.44025 5.625,-29.21875 0.60629,-0.56003 0.41284,2.78194 -1.1875,19.4375 -0.61974,6.44988 -0.44444,7.62653 2.34375,14 1.67421,3.82705 3.38679,8.768753 3.78125,10.968753 1.69944,9.47824 6.4375,13.15704 6.4375,5 0,-2.46711 0.52027,-6.43463 1.15625,-8.8125 1.56718,-5.859493 0.63845,-8.737513 -4.8125,-14.875003 -4.63423,-5.21789 -4.63795,-5.2308 -4,-21.40625 0.70826,-17.95842 -0.15834,-25.135101 -3.90625,-32.531245 -3.9524,-7.79967 -6.8301,-9.19242 -20.875,-10 -6.62877,-0.38116 -20.8375,-0.26909 -31.5625,0.25 -10.725,0.51909 -24.76872,1.21196 -31.21875,1.53125 -13.60782,0.67359 -30.39328,-0.83789 -43.28125,-3.90625 -7.20015,-1.71423 -12.39971,-2.18395 -26,-2.28125 -22.02427,-0.1576 -25.53401,-1.44159 -21.5,-7.9687495 1.17732,-1.90494 1.84612,-3.93997 1.5,-4.5 -0.81856,-1.32451 -4.40853,-1.29844 -8.3125,0.0625 -2.790231,0.97268 -3.475231,0.78849 -6.906251,-1.96875 -3.34105,-2.68492004 -3.77634,-3.03232004 -13.75,-3.0312500430222 z M 171.43773,101.06237 c 1.20902,-0.0487 2.57712,-0.001 4.09375,0.0937 5.42077,0.34013 25.53707,3.03834 32.5625,4.375 1.23306,0.2346 5.04607,3.18216 8.46875,6.53125 5.25068,5.1378 6.50535,5.90218 8,4.96875 2.48526,-1.55207 5.95,-1.37048 8.53125,0.4375 2.04599,1.43306 2.35012,1.36476 4.40625,-1 2.79514,-3.21467 4.62679,-3.23208 5.84375,-0.0312 1.91608,5.03969 -6.35055,23.08257 -14.34375,31.28125 -2.90175,2.97635 -4.27264,4.82352 -3.9375,5.875 -25.72556,-1.16847 -50.1949,-1.03025 -73.53125,0.6875 0.80458,-0.36715 1.36547,-0.8256 1.8125,-1.4375 0.825,-1.12927 2.83012,-3.63341 4.4375,-5.5625 2.67796,-3.21395 2.82439,-3.77881 1.75,-6.75 -2.39452,-6.62193 -1.00387,-25.72502 2.46875,-33.78125 1.6458,-3.81816 4.19843,-5.47629 9.4375,-5.6875 z m 88.25,11.0625 c 0.15306,-0.0302 0.32365,-0.0268 0.46875,0 2.93282,0.5412 7.39277,11.04292 7.9375,18.65625 0.70958,9.91736 -1.52923,16.79776 -7.25,22.25 -1.00902,0.96166 -1.90373,1.89603 -2.65625,2.71875 -7.2993,-0.61081 -14.48849,-1.13868 -21.59375,-1.5625 4.03733,-0.66785 5.75,-1.94533 5.75,-4.21875 0,-0.94741 0.92054,-2.55732 2.03125,-3.5625 1.16739,-1.05647 3.54221,-6.71378 5.625,-13.40625 4.21849,-13.55492 7.39155,-20.42128 9.6875,-20.875 z m -115.1875,7.96875 c 0.22421,0.0115 0.44654,0.0891 0.65625,0.21875 0.51046,0.31548 1.42665,3.20554 2.0625,6.4375 1.81589,9.23 0.14185,15.24514 -6.1875,21.9375 -3.92297,4.14797 -5.05149,6.09593 -2.8125,6.75 -1.2133,0.12313 -2.41781,0.24285 -3.625,0.375 -1.72815,0.18919 -3.45259,0.36242 -5.15625,0.53125 0.27413,-0.0769 0.5084,-0.15613 0.65625,-0.25 0.68996,-0.43806 2.37746,-2.32712 3.75,-4.1875 2.0287,-2.74975 2.5,-4.522 2.5,-9.5625 0,-9.81852 4.79307,-22.42249 8.15625,-22.25 z"
     id="path3195"
     inkscape:connector-curvature="0"
     sodipodi:nodetypes="sssssssssssssssccsccccsssssssssssssssssssssssssssssssssccsssssssssccsssssssscsccsss" /><g
     id="g3106"
     transform="translate(4.9923492,162.43411)"><g
       inkscape:label="stay"
       id="layer11"><path
         sodipodi:nodetypes="czzc"
         inkscape:connector-curvature="0"
         id="path4253"
         d="m 228.21443,198.93115 c 0,0 0,28.3769 0,34.18103 0,5.80413 2.10183,17.90232 5.9375,3.58739 3.83567,-14.31493 5.9375,10.57972 5.9375,14.94368"
         style="fill:none;stroke:#000000;stroke-width:1px;stroke-linecap:butt;stroke-linejoin:miter;stroke-opacity:1;display:inline"
         transform="translate(-220.62782,-173.41319)" /><path
         style="fill:none;stroke:#000000;stroke-width:1px;stroke-linecap:butt;stroke-linejoin:miter;stroke-opacity:1;display:inline"
         d="m 228.21443,304.35535 c 0,0 0,-28.3769 0,-34.18103 0,-5.80413 2.10183,-17.90232 5.9375,-3.58739 3.83567,14.31493 5.9375,-10.57972 5.9375,-14.94368"
         id="path4282"
         inkscape:connector-curvature="0"
         sodipodi:nodetypes="czzc"
         transform="translate(-220.62782,-173.41319)" /></g><g
       transform="translate(-220.62782,-173.41319)"
       style="display:inline"
       inkscape:label="move"
       id="layer6"><path
         sodipodi:nodetypes="czzc"
         inkscape:connector-curvature="0"
         id="path3928"
         d="m 263.64533,198.9312 c 4.39408,0 12.87622,-3.02246 8.97978,-8.78248 -3.89644,-5.76002 9.7487,-11.62889 14.14517,-8.06132 4.39647,3.56757 -5.40625,16.84375 -5.40625,16.84375"
         style="fill:none;stroke:#000000;stroke-width:1px;stroke-linecap:butt;stroke-linejoin:miter;stroke-opacity:1;display:inline"
         transform="translate(0,-2.5390623e-6)" /><use
         height="1052.3622"
         width="744.09448"
         transform="matrix(-1,0,0,-1,562.72806,397.8623)"
         id="use3930"
         xlink:href="#path3928"
         y="0"
         x="0"
         style="display:inline" /><path
         style="fill:none;stroke:#000000;stroke-width:1px;stroke-linecap:butt;stroke-linejoin:miter;stroke-opacity:1"
         d="m 334.51364,198.93115 c 0,0 0,28.3769 0,34.18103 0,5.80413 2.10183,17.90232 5.9375,3.58739 3.83567,-14.31493 5.9375,10.57972 5.9375,14.94368"
         id="path4284"
         inkscape:connector-curvature="0"
         sodipodi:nodetypes="czzc" /><path
         sodipodi:nodetypes="czzc"
         inkscape:connector-curvature="0"
         id="path4286"
         d="m 334.51364,304.35535 c 0,0 0,-28.3769 0,-34.18103 0,-5.80413 2.10183,-17.90232 5.9375,-3.58739 3.83567,14.31493 5.9375,-10.57972 5.9375,-14.94368"
         style="fill:none;stroke:#000000;stroke-width:1px;stroke-linecap:butt;stroke-linejoin:miter;stroke-opacity:1" /><path
         inkscape:connector-curvature="0"
         sodipodi:insensitive="true"
         id="tileWidth"
         d="m 228.21443,304.35535 106.29921,0"
         style="fill:none;stroke:#000000;stroke-width:1px;stroke-linecap:butt;stroke-linejoin:miter;stroke-opacity:1" /><text
         transform="scale(1.0556955,0.94724283)"
         sodipodi:linespacing="125%"
         id="text4290"
         y="298.07895"
         x="266.47726"
         style="font-size:87.67693329px;font-style:normal;font-variant:normal;font-weight:normal;font-stretch:normal;text-align:center;line-height:125%;letter-spacing:0px;word-spacing:0px;text-anchor:middle;fill:#ff0000;fill-opacity:1;stroke:none;font-family:Asana Math;-inkscape-font-specification:Asana Math"
         xml:space="preserve"><tspan
           style="font-style:normal;font-variant:normal;font-weight:normal;font-stretch:normal;font-family:Asana Math;-inkscape-font-specification:Asana Math"
           y="298.07895"
           x="266.47726"
           id="text"
           sodipodi:role="line">K</tspan></text>
</g><g
       transform="translate(-220.62782,-173.41319)"
       style="display:none"
       inkscape:label="b13"
       id="layer5"><path
         sodipodi:nodetypes="ccc"
         inkscape:connector-curvature="0"
         id="path4041"
         d="m 245.86353,198.93119 c 5.2461,0 12.22568,-17.71875 16.50977,-17.71875 4.28409,0 -4.06837,17.71875 1.17773,17.71875"
         style="fill:none;stroke:#000000;stroke-width:1px;stroke-linecap:butt;stroke-linejoin:miter;stroke-opacity:1;display:inline" /><path
         style="fill:none;stroke:#000000;stroke-width:1px;stroke-linecap:butt;stroke-linejoin:miter;stroke-opacity:1;display:inline"
         d="m 316.86453,198.9311 c -5.2461,0 -12.22568,17.71875 -16.50977,17.71875 -4.28409,0 4.06837,-17.71875 -1.17773,-17.71875"
         id="path4043"
         inkscape:connector-curvature="0"
         sodipodi:nodetypes="ccc" /></g><g
       transform="translate(-220.62782,-173.41319)"
       id="g4121"
       inkscape:label="b23"
       style="display:none"><path
         style="fill:none;stroke:#000000;stroke-width:1px;stroke-linecap:butt;stroke-linejoin:miter;stroke-opacity:1;display:inline"
         d="m 228.27032,198.9312 c 5.2461,0 12.22568,-17.71875 16.50977,-17.71875 4.28409,0 -4.06837,17.71875 1.17773,17.71875"
         id="path4123"
         inkscape:connector-curvature="0"
         sodipodi:nodetypes="ccc" /><path
         sodipodi:nodetypes="ccc"
         inkscape:connector-curvature="0"
         id="path4125"
         d="m 334.42868,198.9311 c -5.2461,0 -12.22568,17.71875 -16.50977,17.71875 -4.28409,0 4.06837,-17.71875 -1.17773,-17.71875"
         style="fill:none;stroke:#000000;stroke-width:1px;stroke-linecap:butt;stroke-linejoin:miter;stroke-opacity:1;display:inline" /></g><g
       transform="translate(-220.62782,-173.41319)"
       style="display:none"
       inkscape:label="b17"
       id="layer7"><path
         style="fill:none;stroke:#000000;stroke-width:1px;stroke-linecap:butt;stroke-linejoin:miter;stroke-opacity:1;display:inline"
         d="m 245.86353,198.93119 c 5.2461,0 12.22568,17.71875 16.50977,17.71875 4.28409,0 -4.06837,-17.71875 1.17773,-17.71875"
         id="path4051"
         inkscape:connector-curvature="0"
         sodipodi:nodetypes="ccc" /><path
         sodipodi:nodetypes="ccc"
         inkscape:connector-curvature="0"
         id="path4053"
         d="m 316.86453,198.9311 c -5.2461,0 -12.22568,-17.71875 -16.50977,-17.71875 -4.28409,0 4.06837,17.71875 -1.17773,17.71875"
         style="fill:none;stroke:#000000;stroke-width:1px;stroke-linecap:butt;stroke-linejoin:miter;stroke-opacity:1;display:inline" /></g><g
       transform="translate(-220.62782,-173.41319)"
       id="g4115"
       inkscape:label="b27"
       style="display:none"><path
         sodipodi:nodetypes="ccc"
         inkscape:connector-curvature="0"
         id="path4117"
         d="m 228.24129,198.9312 c 5.2461,0 12.22568,17.71875 16.50977,17.71875 4.28409,0 -4.06837,-17.71875 1.17773,-17.71875"
         style="fill:none;stroke:#000000;stroke-width:1px;stroke-linecap:butt;stroke-linejoin:miter;stroke-opacity:1;display:inline" /><path
         style="fill:none;stroke:#000000;stroke-width:1px;stroke-linecap:butt;stroke-linejoin:miter;stroke-opacity:1;display:inline"
         d="m 334.42868,198.9311 c -5.2461,0 -12.22568,-17.71875 -16.50977,-17.71875 -4.28409,0 4.06837,17.71875 -1.17773,17.71875"
         id="path4119"
         inkscape:connector-curvature="0"
         sodipodi:nodetypes="ccc" /></g><g
       transform="translate(-220.62782,-173.41319)"
       style="display:inline"
       inkscape:label="b12"
       id="layer4"><path
         style="fill:none;stroke:#000000;stroke-width:1px;stroke-linecap:butt;stroke-linejoin:miter;stroke-opacity:1;display:inline"
         d="m 263.64533,198.93119 c -5.2461,0 -12.22568,-17.71875 -16.50977,-17.71875 -4.28409,0 4.06837,17.71875 -1.17773,17.71875"
         id="path4019"
         inkscape:connector-curvature="0"
         sodipodi:nodetypes="ccc" /><path
         sodipodi:nodetypes="ccc"
         inkscape:connector-curvature="0"
         id="path4039"
         d="m 299.08273,198.9311 c 5.2461,0 12.22568,17.71875 16.50977,17.71875 4.28409,0 -4.06837,-17.71875 1.17773,-17.71875"
         style="fill:none;stroke:#000000;stroke-width:1px;stroke-linecap:butt;stroke-linejoin:miter;stroke-opacity:1;display:inline" /></g><g
       transform="translate(-220.62782,-173.41319)"
       id="g4109"
       inkscape:label="b22"
       style="display:none"><path
         sodipodi:nodetypes="ccc"
         inkscape:connector-curvature="0"
         id="path4111"
         d="m 245.99045,198.9323 c -5.2461,0 -12.22568,-17.71875 -16.50977,-17.71875 -4.28409,0 4.06837,17.71875 -1.17773,17.71875"
         style="fill:none;stroke:#000000;stroke-width:1px;stroke-linecap:butt;stroke-linejoin:miter;stroke-opacity:1;display:inline" /><path
         style="fill:none;stroke:#000000;stroke-width:1px;stroke-linecap:butt;stroke-linejoin:miter;stroke-opacity:1;display:inline"
         d="m 316.7702,198.9311 c 5.2461,0 12.22568,17.71875 16.50977,17.71875 4.28409,0 -4.06837,-17.71875 1.17773,-17.71875"
         id="path4113"
         inkscape:connector-curvature="0"
         sodipodi:nodetypes="ccc" /></g><g
       transform="translate(-220.62782,-173.41319)"
       style="display:none"
       inkscape:label="b16"
       id="layer8"><path
         sodipodi:nodetypes="ccc"
         inkscape:connector-curvature="0"
         id="path4058"
         d="m 263.64533,198.9312 c -5.2461,0 -12.22568,17.71875 -16.50977,17.71875 -4.28409,0 4.06837,-17.71875 -1.17773,-17.71875"
         style="fill:none;stroke:#000000;stroke-width:1px;stroke-linecap:butt;stroke-linejoin:miter;stroke-opacity:1;display:inline" /><path
         style="fill:none;stroke:#000000;stroke-width:1px;stroke-linecap:butt;stroke-linejoin:miter;stroke-opacity:1;display:inline"
         d="m 299.08273,198.9311 c 5.2461,0 12.22568,-17.71875 16.50977,-17.71875 4.28409,0 -4.06837,17.71875 1.17773,17.71875"
         id="path4060"
         inkscape:connector-curvature="0"
         sodipodi:nodetypes="ccc" /></g><g
       transform="translate(-220.62782,-173.41319)"
       id="g4103"
       inkscape:label="b26"
       style="display:none"><path
         style="fill:none;stroke:#000000;stroke-width:1px;stroke-linecap:butt;stroke-linejoin:miter;stroke-opacity:1;display:inline"
         d="m 245.92879,198.9312 c -5.2461,0 -12.22568,17.71875 -16.50977,17.71875 -4.28409,0 4.06837,-17.71875 -1.17773,-17.71875"
         id="path4105"
         inkscape:connector-curvature="0"
         sodipodi:nodetypes="ccc" /><path
         sodipodi:nodetypes="ccc"
         inkscape:connector-curvature="0"
         id="path4107"
         d="m 316.74118,198.9311 c 5.2461,0 12.22568,-17.71875 16.50977,-17.71875 4.28409,0 -4.06837,17.71875 1.17773,17.71875"
         style="fill:none;stroke:#000000;stroke-width:1px;stroke-linecap:butt;stroke-linejoin:miter;stroke-opacity:1;display:inline" /></g><g
       transform="translate(-220.62782,-173.41319)"
       style="display:none"
       inkscape:label="b11"
       id="layer3"><path
         sodipodi:nodetypes="czc"
         inkscape:connector-curvature="0"
         id="path3936-7"
         d="m 263.64533,198.9312 c -17.50196,0 10.03995,-11.37109 -8.84375,-11.37109 -18.8837,0 8.75587,11.37109 -8.84375,11.37109"
         style="fill:none;stroke:#000000;stroke-width:1px;stroke-linecap:butt;stroke-linejoin:miter;stroke-opacity:1;display:inline"
         transform="translate(0,-5.0781246e-6)" /><path
         style="fill:none;stroke:#000000;stroke-width:1px;stroke-linecap:butt;stroke-linejoin:miter;stroke-opacity:1;display:inline"
         d="m 299.08273,198.9311 c 17.50195,0 -10.03996,11.37109 8.84375,11.37109 18.8837,0 -8.75587,-11.37109 8.84375,-11.37109"
         id="path3993"
         inkscape:connector-curvature="0"
         sodipodi:nodetypes="czc"
         transform="translate(0,-5.0781246e-6)" /></g><g
       transform="translate(-220.62782,-173.41319)"
       id="g4097"
       inkscape:label="b21"
       style="display:inline"><path
         style="fill:none;stroke:#000000;stroke-width:1px;stroke-linecap:butt;stroke-linejoin:miter;stroke-opacity:1;display:inline"
         d="m 245.95782,198.9312 c -17.50196,0 10.03995,-11.37109 -8.84375,-11.37109 -18.8837,0 8.75587,11.37109 -8.84375,11.37109"
         id="path4099"
         inkscape:connector-curvature="0"
         sodipodi:nodetypes="czc" /><path
         sodipodi:nodetypes="czc"
         inkscape:connector-curvature="0"
         id="path4101"
         d="m 316.7702,198.9311 c 17.50195,0 -10.03996,11.37109 8.84375,11.37109 18.8837,0 -8.75587,-11.37109 8.84375,-11.37109"
         style="fill:none;stroke:#000000;stroke-width:1px;stroke-linecap:butt;stroke-linejoin:miter;stroke-opacity:1;display:inline" /></g><g
       transform="translate(-220.62782,-173.41319)"
       style="display:none"
       inkscape:label="b15"
       id="layer9"><path
         style="fill:none;stroke:#000000;stroke-width:1px;stroke-linecap:butt;stroke-linejoin:miter;stroke-opacity:1;display:inline"
         d="m 263.64533,198.93109 c -17.50196,0 10.03995,11.37109 -8.84375,11.37109 -18.8837,0 8.75587,-11.37109 -8.84375,-11.37109"
         id="path4067"
         inkscape:connector-curvature="0"
         sodipodi:nodetypes="czc" /><path
         sodipodi:nodetypes="czc"
         inkscape:connector-curvature="0"
         id="path4069"
         d="m 299.08273,198.93119 c 17.50195,0 -10.03996,-11.37109 8.84375,-11.37109 18.8837,0 -8.75587,11.37109 8.84375,11.37109"
         style="fill:none;stroke:#000000;stroke-width:1px;stroke-linecap:butt;stroke-linejoin:miter;stroke-opacity:1;display:inline" /></g><g
       transform="translate(-220.62782,-173.41319)"
       id="g4091"
       inkscape:label="b25"
       style="display:none"><path
         sodipodi:nodetypes="czc"
         inkscape:connector-curvature="0"
         id="path4093"
         d="m 245.95782,198.9312 c -17.50196,0 10.03995,11.37109 -8.84375,11.37109 -18.8837,0 8.75587,-11.37109 -8.84375,-11.37109"
         style="fill:none;stroke:#000000;stroke-width:1px;stroke-linecap:butt;stroke-linejoin:miter;stroke-opacity:1;display:inline" /><path
         style="fill:none;stroke:#000000;stroke-width:1px;stroke-linecap:butt;stroke-linejoin:miter;stroke-opacity:1;display:inline"
         d="m 316.74118,198.9311 c 17.50195,0 -10.03996,-11.37109 8.84375,-11.37109 18.8837,0 -8.75587,11.37109 8.84375,11.37109"
         id="path4095"
         inkscape:connector-curvature="0"
         sodipodi:nodetypes="czc" /></g><g
       transform="translate(-220.62782,-173.41319)"
       style="display:none"
       inkscape:label="b10"
       id="layer2"><path
         sodipodi:nodetypes="ccc"
         inkscape:connector-curvature="0"
         id="path3936"
         d="m 263.64533,198.9312 c -5.2461,0 -4.55966,-17.71875 -8.84375,-17.71875 -4.28409,0 -3.59765,17.71875 -8.84375,17.71875"
         style="fill:none;stroke:#000000;stroke-width:1px;stroke-linecap:butt;stroke-linejoin:miter;stroke-opacity:1"
         transform="translate(0,-2.5390623e-6)" /><path
         style="fill:none;stroke:#000000;stroke-width:1px;stroke-linecap:butt;stroke-linejoin:miter;stroke-opacity:1"
         d="m 299.08273,198.9311 c 5.2461,0 4.55966,17.71875 8.84375,17.71875 4.28409,0 3.59765,-17.71875 8.84375,-17.71875"
         id="path3947"
         inkscape:connector-curvature="0"
         sodipodi:nodetypes="ccc"
         transform="translate(0,-2.5390623e-6)" /></g><g
       transform="translate(-220.62782,-173.41319)"
       id="g4085"
       inkscape:label="b20"
       style="display:none"><path
         style="fill:none;stroke:#000000;stroke-width:1px;stroke-linecap:butt;stroke-linejoin:miter;stroke-opacity:1"
         d="m 245.95782,198.9312 c -5.2461,0 -4.55966,-17.71875 -8.84375,-17.71875 -4.28409,0 -3.59765,17.71875 -8.84375,17.71875"
         id="path4087"
         inkscape:connector-curvature="0"
         sodipodi:nodetypes="ccc" /><path
         sodipodi:nodetypes="ccc"
         inkscape:connector-curvature="0"
         id="path4089"
         d="m 316.74118,198.9311 c 5.2461,0 4.55966,17.71875 8.84375,17.71875 4.28409,0 3.59765,-17.71875 8.84375,-17.71875"
         style="fill:none;stroke:#000000;stroke-width:1px;stroke-linecap:butt;stroke-linejoin:miter;stroke-opacity:1" /></g><g
       transform="translate(-220.62782,-173.41319)"
       style="display:none"
       inkscape:label="b14"
       id="layer10"><path
         style="fill:none;stroke:#000000;stroke-width:1px;stroke-linecap:butt;stroke-linejoin:miter;stroke-opacity:1;display:inline"
         d="m 263.64533,198.9311 c -5.2461,0 -4.55966,17.71875 -8.84375,17.71875 -4.28409,0 -3.59765,-17.71875 -8.84375,-17.71875"
         id="path4073"
         inkscape:connector-curvature="0"
         sodipodi:nodetypes="ccc" /><path
         sodipodi:nodetypes="ccc"
         inkscape:connector-curvature="0"
         id="path4075"
         d="m 299.08273,198.9312 c 5.2461,0 4.55966,-17.71875 8.84375,-17.71875 4.28409,0 3.59765,17.71875 8.84375,17.71875"
         style="fill:none;stroke:#000000;stroke-width:1px;stroke-linecap:butt;stroke-linejoin:miter;stroke-opacity:1;display:inline" /></g><g
       transform="translate(-220.62782,-173.41319)"
       id="g4079"
       inkscape:label="b24"
       style="display:none"><path
         sodipodi:nodetypes="ccc"
         inkscape:connector-curvature="0"
         id="path4081"
         d="m 245.95783,198.9312 c -5.2461,0 -4.55966,17.71875 -8.84375,17.71875 -4.28409,0 -3.59765,-17.71875 -8.84375,-17.71875"
         style="fill:none;stroke:#000000;stroke-width:1px;stroke-linecap:butt;stroke-linejoin:miter;stroke-opacity:1;display:inline" /><path
         style="fill:none;stroke:#000000;stroke-width:1px;stroke-linecap:butt;stroke-linejoin:miter;stroke-opacity:1;display:inline"
         d="m 316.77023,198.9311 c 5.2461,0 4.55966,-17.71875 8.84375,-17.71875 4.28409,0 3.59765,17.71875 8.84375,17.71875"
         id="path4083"
         inkscape:connector-curvature="0"
         sodipodi:nodetypes="ccc" /></g><g
       transform="translate(-114.32861,-173.41319)"
       style="display:inline"
       inkscape:label="move"
       id="g3050"><path
         sodipodi:nodetypes="czzc"
         inkscape:connector-curvature="0"
         id="path3052"
         d="m 263.64533,198.9312 c 4.39408,0 12.87622,-3.02246 8.97978,-8.78248 -3.89644,-5.76002 9.7487,-11.62889 14.14517,-8.06132 4.39647,3.56757 -5.40625,16.84375 -5.40625,16.84375"
         style="fill:none;stroke:#000000;stroke-width:1px;stroke-linecap:butt;stroke-linejoin:miter;stroke-opacity:1;display:inline"
         transform="translate(0,-2.5390623e-6)" /><use
         height="1052.3622"
         width="744.09448"
         transform="matrix(-1,0,0,-1,562.72806,397.8623)"
         id="use3054"
         xlink:href="#path3928"
         y="0"
         x="0"
         style="display:inline" /><path
         style="fill:none;stroke:#000000;stroke-width:1px;stroke-linecap:butt;stroke-linejoin:miter;stroke-opacity:1"
         d="m 334.51364,198.93115 c 0,0 0,28.3769 0,34.18103 0,5.80413 2.10183,17.90232 5.9375,3.58739 3.83567,-14.31493 5.9375,10.57972 5.9375,14.94368"
         id="path3056"
         inkscape:connector-curvature="0"
         sodipodi:nodetypes="czzc" /><path
         sodipodi:nodetypes="czzc"
         inkscape:connector-curvature="0"
         id="path3058"
         d="m 334.51364,304.35535 c 0,0 0,-28.3769 0,-34.18103 0,-5.80413 2.10183,-17.90232 5.9375,-3.58739 3.83567,14.31493 5.9375,-10.57972 5.9375,-14.94368"
         style="fill:none;stroke:#000000;stroke-width:1px;stroke-linecap:butt;stroke-linejoin:miter;stroke-opacity:1" /><path
         inkscape:connector-curvature="0"
         sodipodi:insensitive="true"
         id="path3060"
         d="m 228.21443,304.35535 106.29921,0"
         style="fill:none;stroke:#000000;stroke-width:1px;stroke-linecap:butt;stroke-linejoin:miter;stroke-opacity:1" /><text
         transform="scale(1.0556955,0.94724283)"
         sodipodi:linespacing="125%"
         id="text3062"
         y="298.07895"
         x="266.47726"
         style="font-size:87.67693329px;font-style:normal;font-variant:normal;font-weight:normal;font-stretch:normal;text-align:center;line-height:125%;letter-spacing:0px;word-spacing:0px;text-anchor:middle;fill:#ff0000;fill-opacity:1;stroke:none;font-family:Asana Math;-inkscape-font-specification:Asana Math"
         xml:space="preserve"><tspan
           style="font-style:normal;font-variant:normal;font-weight:normal;font-stretch:normal;font-family:Asana Math;-inkscape-font-specification:Asana Math"
           y="298.07895"
           x="266.47726"
           id="tspan3064"
           sodipodi:role="line">u</tspan></text>
</g><g
       transform="translate(-114.32861,-173.41319)"
       style="display:inline"
       inkscape:label="b14"
       id="g3066"><path
         style="fill:none;stroke:#000000;stroke-width:1px;stroke-linecap:butt;stroke-linejoin:miter;stroke-opacity:1;display:inline"
         d="m 263.64533,198.9311 c -5.2461,0 -4.55966,17.71875 -8.84375,17.71875 -4.28409,0 -3.59765,-17.71875 -8.84375,-17.71875"
         id="path3068"
         inkscape:connector-curvature="0"
         sodipodi:nodetypes="ccc" /><path
         sodipodi:nodetypes="ccc"
         inkscape:connector-curvature="0"
         id="path3070"
         d="m 299.08273,198.9312 c 5.2461,0 4.55966,-17.71875 8.84375,-17.71875 4.28409,0 3.59765,17.71875 8.84375,17.71875"
         style="fill:none;stroke:#000000;stroke-width:1px;stroke-linecap:butt;stroke-linejoin:miter;stroke-opacity:1;display:inline" /></g><g
       transform="translate(-114.32861,-173.41319)"
       id="g3072"
       inkscape:label="b22"
       style="display:inline"><path
         sodipodi:nodetypes="ccc"
         inkscape:connector-curvature="0"
         id="path3074"
         d="m 245.99045,198.9323 c -5.2461,0 -12.22568,-17.71875 -16.50977,-17.71875 -4.28409,0 4.06837,17.71875 -1.17773,17.71875"
         style="fill:none;stroke:#000000;stroke-width:1px;stroke-linecap:butt;stroke-linejoin:miter;stroke-opacity:1;display:inline" /><path
         style="fill:none;stroke:#000000;stroke-width:1px;stroke-linecap:butt;stroke-linejoin:miter;stroke-opacity:1;display:inline"
         d="m 316.7702,198.9311 c 5.2461,0 12.22568,17.71875 16.50977,17.71875 4.28409,0 -4.06837,-17.71875 1.17773,-17.71875"
         id="path3076"
         inkscape:connector-curvature="0"
         sodipodi:nodetypes="ccc" /></g><g
       transform="translate(-8.0294008,-173.41319)"
       style="display:inline"
       inkscape:label="move"
       id="g3078"><path
         sodipodi:nodetypes="czzc"
         inkscape:connector-curvature="0"
         id="path3080"
         d="m 263.64533,198.9312 c 4.39408,0 12.87622,-3.02246 8.97978,-8.78248 -3.89644,-5.76002 9.7487,-11.62889 14.14517,-8.06132 4.39647,3.56757 -5.40625,16.84375 -5.40625,16.84375"
         style="fill:none;stroke:#000000;stroke-width:1px;stroke-linecap:butt;stroke-linejoin:miter;stroke-opacity:1;display:inline"
         transform="translate(0,-2.5390623e-6)" /><use
         height="1052.3622"
         width="744.09448"
         transform="matrix(-1,0,0,-1,562.72806,397.8623)"
         id="use3082"
         xlink:href="#path3928"
         y="0"
         x="0"
         style="display:inline" /><path
         style="fill:none;stroke:#000000;stroke-width:1px;stroke-linecap:butt;stroke-linejoin:miter;stroke-opacity:1"
         d="m 334.51364,198.93115 c 0,0 0,28.3769 0,34.18103 0,5.80413 2.10183,17.90232 5.9375,3.58739 3.83567,-14.31493 5.9375,10.57972 5.9375,14.94368"
         id="path3084"
         inkscape:connector-curvature="0"
         sodipodi:nodetypes="czzc" /><path
         sodipodi:nodetypes="czzc"
         inkscape:connector-curvature="0"
         id="path3086"
         d="m 334.51364,304.35535 c 0,0 0,-28.3769 0,-34.18103 0,-5.80413 2.10183,-17.90232 5.9375,-3.58739 3.83567,14.31493 5.9375,-10.57972 5.9375,-14.94368"
         style="fill:none;stroke:#000000;stroke-width:1px;stroke-linecap:butt;stroke-linejoin:miter;stroke-opacity:1" /><path
         inkscape:connector-curvature="0"
         sodipodi:insensitive="true"
         id="path3088"
         d="m 228.21443,304.35535 106.29921,0"
         style="fill:none;stroke:#000000;stroke-width:1px;stroke-linecap:butt;stroke-linejoin:miter;stroke-opacity:1" /><text
         transform="scale(1.0556955,0.94724283)"
         sodipodi:linespacing="125%"
         id="text3090"
         y="298.07895"
         x="266.47726"
         style="font-size:87.67693329px;font-style:normal;font-variant:normal;font-weight:normal;font-stretch:normal;text-align:center;line-height:125%;letter-spacing:0px;word-spacing:0px;text-anchor:middle;fill:#ff0000;fill-opacity:1;stroke:none;font-family:Asana Math;-inkscape-font-specification:Asana Math"
         xml:space="preserve"><tspan
           style="font-style:normal;font-variant:normal;font-weight:normal;font-stretch:normal;font-family:Asana Math;-inkscape-font-specification:Asana Math"
           y="298.07895"
           x="266.47726"
           id="tspan3092"
           sodipodi:role="line">h</tspan></text>
</g><g
       transform="translate(-8.0294008,-173.41319)"
       style="display:inline"
       inkscape:label="b17"
       id="g3094"><path
         style="fill:none;stroke:#000000;stroke-width:1px;stroke-linecap:butt;stroke-linejoin:miter;stroke-opacity:1;display:inline"
         d="m 245.86353,198.93119 c 5.2461,0 12.22568,17.71875 16.50977,17.71875 4.28409,0 -4.06837,-17.71875 1.17773,-17.71875"
         id="path3096"
         inkscape:connector-curvature="0"
         sodipodi:nodetypes="ccc" /><path
         sodipodi:nodetypes="ccc"
         inkscape:connector-curvature="0"
         id="path3098"
         d="m 316.86453,198.9311 c -5.2461,0 -12.22568,-17.71875 -16.50977,-17.71875 -4.28409,0 4.06837,17.71875 -1.17773,17.71875"
         style="fill:none;stroke:#000000;stroke-width:1px;stroke-linecap:butt;stroke-linejoin:miter;stroke-opacity:1;display:inline" /></g><g
       transform="translate(-8.0294008,-173.41319)"
       id="g3100"
       inkscape:label="b20"
       style="display:inline"><path
         style="fill:none;stroke:#000000;stroke-width:1px;stroke-linecap:butt;stroke-linejoin:miter;stroke-opacity:1"
         d="m 245.95782,198.9312 c -5.2461,0 -4.55966,-17.71875 -8.84375,-17.71875 -4.28409,0 -3.59765,17.71875 -8.84375,17.71875"
         id="path3102"
         inkscape:connector-curvature="0"
         sodipodi:nodetypes="ccc" /><path
         sodipodi:nodetypes="ccc"
         inkscape:connector-curvature="0"
         id="path3104"
         d="m 316.74118,198.9311 c 5.2461,0 4.55966,17.71875 8.84375,17.71875 4.28409,0 3.59765,-17.71875 8.84375,-17.71875"
         style="fill:none;stroke:#000000;stroke-width:1px;stroke-linecap:butt;stroke-linejoin:miter;stroke-opacity:1" /></g></g></svg>