<?xml version="1.0" encoding="UTF-8" standalone="no"?>
<!-- Created with Inkscape (http://www.inkscape.org/) -->

<svg
   xmlns:dc="http://purl.org/dc/elements/1.1/"
   xmlns:cc="http://creativecommons.org/ns#"
   xmlns:rdf="http://www.w3.org/1999/02/22-rdf-syntax-ns#"
   xmlns:svg="http://www.w3.org/2000/svg"
   xmlns="http://www.w3.org/2000/svg"
   xmlns:xlink="http://www.w3.org/1999/xlink"
   xmlns:sodipodi="http://sodipodi.sourceforge.net/DTD/sodipodi-0.dtd"
   xmlns:inkscape="http://www.inkscape.org/namespaces/inkscape"
   width="368.03687"
   height="612.25018"
   id="svg3419"
   version="1.1"
   inkscape:version="0.48.5 r10040"
   sodipodi:docname="Turm.svg">
  <defs
     id="defs3421" />
  <sodipodi:namedview
     id="base"
     pagecolor="#ffffff"
     bordercolor="#666666"
     borderopacity="1.0"
     inkscape:pageopacity="0.0"
     inkscape:pageshadow="2"
     inkscape:zoom="0.98994949"
     inkscape:cx="159.939"
     inkscape:cy="294.63645"
     inkscape:document-units="px"
     inkscape:current-layer="layer1"
     showgrid="false"
     inkscape:snap-object-midpoints="true"
     inkscape:snap-midpoints="true"
     inkscape:object-nodes="true"
     inkscape:window-width="1920"
     inkscape:window-height="1036"
     inkscape:window-x="0"
     inkscape:window-y="44"
     inkscape:window-maximized="0"
     fit-margin-top="0"
     fit-margin-left="0"
     fit-margin-right="0"
     fit-margin-bottom="0" />
  <metadata
     id="metadata3424">
    <rdf:RDF>
      <cc:Work
         rdf:about="">
        <dc:format>image/svg+xml</dc:format>
        <dc:type
           rdf:resource="http://purl.org/dc/dcmitype/StillImage" />
        <dc:title></dc:title>
      </cc:Work>
    </rdf:RDF>
  </metadata>
  <g
     inkscape:label="Layer 1"
     inkscape:groupmode="layer"
     id="layer1"
     transform="translate(-315.18469,-169.28098)">
    <g
       id="g3793"
       transform="matrix(0,-1,1,0,426.16944,764.58641)">
      <g
         inkscape:label="stay"
         id="layer11">
        <path
           sodipodi:nodetypes="czzc"
           inkscape:connector-curvature="0"
           id="path4253"
           d="m 228.21443,198.93115 c 0,0 0,28.3769 0,34.18103 0,5.80413 2.10183,17.90232 5.9375,3.58739 3.83567,-14.31493 5.9375,10.57972 5.9375,14.94368"
           style="fill:none;stroke:#000000;stroke-width:1px;stroke-linecap:butt;stroke-linejoin:miter;stroke-opacity:1;display:inline"
           transform="translate(-220.62782,-173.41319)" />
        <path
           style="fill:none;stroke:#000000;stroke-width:1px;stroke-linecap:butt;stroke-linejoin:miter;stroke-opacity:1;display:inline"
           d="m 228.21443,304.35535 c 0,0 0,-28.3769 0,-34.18103 0,-5.80413 2.10183,-17.90232 5.9375,-3.58739 3.83567,14.31493 5.9375,-10.57972 5.9375,-14.94368"
           id="path4282"
           inkscape:connector-curvature="0"
           sodipodi:nodetypes="czzc"
           transform="translate(-220.62782,-173.41319)" />
      </g>
      <g
         transform="translate(-220.62782,-173.41319)"
         style="display:inline"
         inkscape:label="move"
         id="layer6">
        <path
           sodipodi:nodetypes="czzc"
           inkscape:connector-curvature="0"
           id="path3928"
           d="m 263.64533,198.9312 c 4.39408,0 12.87622,-3.02246 8.97978,-8.78248 -3.89644,-5.76002 9.7487,-11.62889 14.14517,-8.06132 4.39647,3.56757 -5.40625,16.84375 -5.40625,16.84375"
           style="fill:none;stroke:#000000;stroke-width:1px;stroke-linecap:butt;stroke-linejoin:miter;stroke-opacity:1;display:inline"
           transform="translate(0,-2.5390623e-6)" />
        <use
           height="1052.3622"
           width="744.09448"
           transform="matrix(-1,0,0,-1,562.72806,397.8623)"
           id="use3930"
           xlink:href="#path3928"
           y="0"
           x="0"
           style="display:inline" />
        <path
           inkscape:connector-curvature="0"
           sodipodi:insensitive="true"
           id="tileWidth"
           d="m 228.21443,304.35535 106.29921,0"
           style="fill:none;stroke:#000000;stroke-width:1px;stroke-linecap:butt;stroke-linejoin:miter;stroke-opacity:1" />
        <text
           transform="scale(1.0556955,0.94724283)"
           sodipodi:linespacing="125%"
           id="text4290"
           y="298.07895"
           x="266.47726"
           style="font-size:87.67693329px;font-style:normal;font-variant:normal;font-weight:normal;font-stretch:normal;text-align:center;line-height:125%;letter-spacing:0px;word-spacing:0px;text-anchor:middle;fill:#ff0000;fill-opacity:1;stroke:none;font-family:Asana Math;-inkscape-font-specification:Asana Math"
           xml:space="preserve"><tspan
             style="font-style:normal;font-variant:normal;font-weight:normal;font-stretch:normal;font-family:Asana Math;-inkscape-font-specification:Asana Math"
             y="298.07895"
             x="266.47726"
             id="text"
             sodipodi:role="line">T</tspan></text>
      </g>
      <g
         style="display:inline"
         inkscape:label="divide"
         id="layer1-6">
        <path
           style="fill:none;stroke:#000000;stroke-width:1px;stroke-linecap:butt;stroke-linejoin:miter;stroke-opacity:1;display:inline"
           d="m 334.51364,198.93115 c 0,0 0,28.3769 0,34.18103 0,5.80413 2.10183,17.90232 5.9375,3.58739 3.83567,-14.31493 5.9375,10.57972 5.9375,14.94368"
           id="path4284"
           inkscape:connector-curvature="0"
           sodipodi:nodetypes="czzc"
           transform="translate(-220.62782,-173.41319)" />
        <path
           sodipodi:nodetypes="czzc"
           inkscape:connector-curvature="0"
           id="path4286"
           d="m 334.51364,304.35535 c 0,0 0,-28.3769 0,-34.18103 0,-5.80413 2.10183,-17.90232 5.9375,-3.58739 3.83567,14.31493 5.9375,-10.57972 5.9375,-14.94368"
           style="fill:none;stroke:#000000;stroke-width:1px;stroke-linecap:butt;stroke-linejoin:miter;stroke-opacity:1;display:inline"
           transform="translate(-220.62782,-173.41319)" />
      </g>
      <g
         transform="translate(-220.62782,-173.41319)"
         style="display:inline"
         inkscape:label="b13"
         id="layer5">
        <path
           sodipodi:nodetypes="ccc"
           inkscape:connector-curvature="0"
           id="path4041"
           d="m 245.86353,198.93119 c 5.2461,0 12.22568,-17.71875 16.50977,-17.71875 4.28409,0 -4.06837,17.71875 1.17773,17.71875"
           style="fill:none;stroke:#000000;stroke-width:1px;stroke-linecap:butt;stroke-linejoin:miter;stroke-opacity:1;display:inline" />
        <path
           style="fill:none;stroke:#000000;stroke-width:1px;stroke-linecap:butt;stroke-linejoin:miter;stroke-opacity:1;display:inline"
           d="m 316.86453,198.9311 c -5.2461,0 -12.22568,17.71875 -16.50977,17.71875 -4.28409,0 4.06837,-17.71875 -1.17773,-17.71875"
           id="path4043"
           inkscape:connector-curvature="0"
           sodipodi:nodetypes="ccc" />
      </g>
      <g
         transform="translate(-220.62782,-173.41319)"
         id="g4121"
         inkscape:label="b23"
         style="display:none">
        <path
           style="fill:none;stroke:#000000;stroke-width:1px;stroke-linecap:butt;stroke-linejoin:miter;stroke-opacity:1;display:inline"
           d="m 228.27032,198.9312 c 5.2461,0 12.22568,-17.71875 16.50977,-17.71875 4.28409,0 -4.06837,17.71875 1.17773,17.71875"
           id="path4123"
           inkscape:connector-curvature="0"
           sodipodi:nodetypes="ccc" />
        <path
           sodipodi:nodetypes="ccc"
           inkscape:connector-curvature="0"
           id="path4125"
           d="m 334.42868,198.9311 c -5.2461,0 -12.22568,17.71875 -16.50977,17.71875 -4.28409,0 4.06837,-17.71875 -1.17773,-17.71875"
           style="fill:none;stroke:#000000;stroke-width:1px;stroke-linecap:butt;stroke-linejoin:miter;stroke-opacity:1;display:inline" />
      </g>
      <g
         transform="translate(-220.62782,-173.41319)"
         style="display:none"
         inkscape:label="b17"
         id="layer7">
        <path
           style="fill:none;stroke:#000000;stroke-width:1px;stroke-linecap:butt;stroke-linejoin:miter;stroke-opacity:1;display:inline"
           d="m 245.86353,198.93119 c 5.2461,0 12.22568,17.71875 16.50977,17.71875 4.28409,0 -4.06837,-17.71875 1.17773,-17.71875"
           id="path4051"
           inkscape:connector-curvature="0"
           sodipodi:nodetypes="ccc" />
        <path
           sodipodi:nodetypes="ccc"
           inkscape:connector-curvature="0"
           id="path4053"
           d="m 316.86453,198.9311 c -5.2461,0 -12.22568,-17.71875 -16.50977,-17.71875 -4.28409,0 4.06837,17.71875 -1.17773,17.71875"
           style="fill:none;stroke:#000000;stroke-width:1px;stroke-linecap:butt;stroke-linejoin:miter;stroke-opacity:1;display:inline" />
      </g>
      <g
         transform="translate(-220.62782,-173.41319)"
         id="g4115"
         inkscape:label="b27"
         style="display:none">
        <path
           sodipodi:nodetypes="ccc"
           inkscape:connector-curvature="0"
           id="path4117"
           d="m 228.24129,198.9312 c 5.2461,0 12.22568,17.71875 16.50977,17.71875 4.28409,0 -4.06837,-17.71875 1.17773,-17.71875"
           style="fill:none;stroke:#000000;stroke-width:1px;stroke-linecap:butt;stroke-linejoin:miter;stroke-opacity:1;display:inline" />
        <path
           style="fill:none;stroke:#000000;stroke-width:1px;stroke-linecap:butt;stroke-linejoin:miter;stroke-opacity:1;display:inline"
           d="m 334.42868,198.9311 c -5.2461,0 -12.22568,-17.71875 -16.50977,-17.71875 -4.28409,0 4.06837,17.71875 -1.17773,17.71875"
           id="path4119"
           inkscape:connector-curvature="0"
           sodipodi:nodetypes="ccc" />
      </g>
      <g
         transform="translate(-220.62782,-173.41319)"
         style="display:none"
         inkscape:label="b12"
         id="layer4">
        <path
           style="fill:none;stroke:#000000;stroke-width:1px;stroke-linecap:butt;stroke-linejoin:miter;stroke-opacity:1;display:inline"
           d="m 263.64533,198.93119 c -5.2461,0 -12.22568,-17.71875 -16.50977,-17.71875 -4.28409,0 4.06837,17.71875 -1.17773,17.71875"
           id="path4019"
           inkscape:connector-curvature="0"
           sodipodi:nodetypes="ccc" />
        <path
           sodipodi:nodetypes="ccc"
           inkscape:connector-curvature="0"
           id="path4039"
           d="m 299.08273,198.9311 c 5.2461,0 12.22568,17.71875 16.50977,17.71875 4.28409,0 -4.06837,-17.71875 1.17773,-17.71875"
           style="fill:none;stroke:#000000;stroke-width:1px;stroke-linecap:butt;stroke-linejoin:miter;stroke-opacity:1;display:inline" />
      </g>
      <g
         transform="translate(-220.62782,-173.41319)"
         id="g4109"
         inkscape:label="b22"
         style="display:inline">
        <path
           sodipodi:nodetypes="ccc"
           inkscape:connector-curvature="0"
           id="path4111"
           d="m 245.99045,198.9323 c -5.2461,0 -12.22568,-17.71875 -16.50977,-17.71875 -4.28409,0 4.06837,17.71875 -1.17773,17.71875"
           style="fill:none;stroke:#000000;stroke-width:1px;stroke-linecap:butt;stroke-linejoin:miter;stroke-opacity:1;display:inline" />
        <path
           style="fill:none;stroke:#000000;stroke-width:1px;stroke-linecap:butt;stroke-linejoin:miter;stroke-opacity:1;display:inline"
           d="m 316.7702,198.9311 c 5.2461,0 12.22568,17.71875 16.50977,17.71875 4.28409,0 -4.06837,-17.71875 1.17773,-17.71875"
           id="path4113"
           inkscape:connector-curvature="0"
           sodipodi:nodetypes="ccc" />
      </g>
      <g
         transform="translate(-220.62782,-173.41319)"
         style="display:none"
         inkscape:label="b16"
         id="layer8">
        <path
           sodipodi:nodetypes="ccc"
           inkscape:connector-curvature="0"
           id="path4058"
           d="m 263.64533,198.9312 c -5.2461,0 -12.22568,17.71875 -16.50977,17.71875 -4.28409,0 4.06837,-17.71875 -1.17773,-17.71875"
           style="fill:none;stroke:#000000;stroke-width:1px;stroke-linecap:butt;stroke-linejoin:miter;stroke-opacity:1;display:inline" />
        <path
           style="fill:none;stroke:#000000;stroke-width:1px;stroke-linecap:butt;stroke-linejoin:miter;stroke-opacity:1;display:inline"
           d="m 299.08273,198.9311 c 5.2461,0 12.22568,-17.71875 16.50977,-17.71875 4.28409,0 -4.06837,17.71875 1.17773,17.71875"
           id="path4060"
           inkscape:connector-curvature="0"
           sodipodi:nodetypes="ccc" />
      </g>
      <g
         transform="translate(-220.62782,-173.41319)"
         id="g4103"
         inkscape:label="b26"
         style="display:none">
        <path
           style="fill:none;stroke:#000000;stroke-width:1px;stroke-linecap:butt;stroke-linejoin:miter;stroke-opacity:1;display:inline"
           d="m 245.92879,198.9312 c -5.2461,0 -12.22568,17.71875 -16.50977,17.71875 -4.28409,0 4.06837,-17.71875 -1.17773,-17.71875"
           id="path4105"
           inkscape:connector-curvature="0"
           sodipodi:nodetypes="ccc" />
        <path
           sodipodi:nodetypes="ccc"
           inkscape:connector-curvature="0"
           id="path4107"
           d="m 316.74118,198.9311 c 5.2461,0 12.22568,-17.71875 16.50977,-17.71875 4.28409,0 -4.06837,17.71875 1.17773,17.71875"
           style="fill:none;stroke:#000000;stroke-width:1px;stroke-linecap:butt;stroke-linejoin:miter;stroke-opacity:1;display:inline" />
      </g>
      <g
         transform="translate(-220.62782,-173.41319)"
         style="display:none"
         inkscape:label="b11"
         id="layer3">
        <path
           sodipodi:nodetypes="czc"
           inkscape:connector-curvature="0"
           id="path3936-7"
           d="m 263.64533,198.9312 c -17.50196,0 10.03995,-11.37109 -8.84375,-11.37109 -18.8837,0 8.75587,11.37109 -8.84375,11.37109"
           style="fill:none;stroke:#000000;stroke-width:1px;stroke-linecap:butt;stroke-linejoin:miter;stroke-opacity:1;display:inline"
           transform="translate(0,-5.0781246e-6)" />
        <path
           style="fill:none;stroke:#000000;stroke-width:1px;stroke-linecap:butt;stroke-linejoin:miter;stroke-opacity:1;display:inline"
           d="m 299.08273,198.9311 c 17.50195,0 -10.03996,11.37109 8.84375,11.37109 18.8837,0 -8.75587,-11.37109 8.84375,-11.37109"
           id="path3993"
           inkscape:connector-curvature="0"
           sodipodi:nodetypes="czc"
           transform="translate(0,-5.0781246e-6)" />
      </g>
      <g
         transform="translate(-220.62782,-173.41319)"
         id="g4097"
         inkscape:label="b21"
         style="display:none">
        <path
           style="fill:none;stroke:#000000;stroke-width:1px;stroke-linecap:butt;stroke-linejoin:miter;stroke-opacity:1;display:inline"
           d="m 245.95782,198.9312 c -17.50196,0 10.03995,-11.37109 -8.84375,-11.37109 -18.8837,0 8.75587,11.37109 -8.84375,11.37109"
           id="path4099"
           inkscape:connector-curvature="0"
           sodipodi:nodetypes="czc" />
        <path
           sodipodi:nodetypes="czc"
           inkscape:connector-curvature="0"
           id="path4101"
           d="m 316.7702,198.9311 c 17.50195,0 -10.03996,11.37109 8.84375,11.37109 18.8837,0 -8.75587,-11.37109 8.84375,-11.37109"
           style="fill:none;stroke:#000000;stroke-width:1px;stroke-linecap:butt;stroke-linejoin:miter;stroke-opacity:1;display:inline" />
      </g>
      <g
         transform="translate(-220.62782,-173.41319)"
         style="display:none"
         inkscape:label="b15"
         id="layer9">
        <path
           style="fill:none;stroke:#000000;stroke-width:1px;stroke-linecap:butt;stroke-linejoin:miter;stroke-opacity:1;display:inline"
           d="m 263.64533,198.93109 c -17.50196,0 10.03995,11.37109 -8.84375,11.37109 -18.8837,0 8.75587,-11.37109 -8.84375,-11.37109"
           id="path4067"
           inkscape:connector-curvature="0"
           sodipodi:nodetypes="czc" />
        <path
           sodipodi:nodetypes="czc"
           inkscape:connector-curvature="0"
           id="path4069"
           d="m 299.08273,198.93119 c 17.50195,0 -10.03996,-11.37109 8.84375,-11.37109 18.8837,0 -8.75587,11.37109 8.84375,11.37109"
           style="fill:none;stroke:#000000;stroke-width:1px;stroke-linecap:butt;stroke-linejoin:miter;stroke-opacity:1;display:inline" />
      </g>
      <g
         transform="translate(-220.62782,-173.41319)"
         id="g4091"
         inkscape:label="b25"
         style="display:none">
        <path
           sodipodi:nodetypes="czc"
           inkscape:connector-curvature="0"
           id="path4093"
           d="m 245.95782,198.9312 c -17.50196,0 10.03995,11.37109 -8.84375,11.37109 -18.8837,0 8.75587,-11.37109 -8.84375,-11.37109"
           style="fill:none;stroke:#000000;stroke-width:1px;stroke-linecap:butt;stroke-linejoin:miter;stroke-opacity:1;display:inline" />
        <path
           style="fill:none;stroke:#000000;stroke-width:1px;stroke-linecap:butt;stroke-linejoin:miter;stroke-opacity:1;display:inline"
           d="m 316.74118,198.9311 c 17.50195,0 -10.03996,-11.37109 8.84375,-11.37109 18.8837,0 -8.75587,11.37109 8.84375,11.37109"
           id="path4095"
           inkscape:connector-curvature="0"
           sodipodi:nodetypes="czc" />
      </g>
      <g
         transform="translate(-220.62782,-173.41319)"
         style="display:none"
         inkscape:label="b10"
         id="layer2">
        <path
           sodipodi:nodetypes="ccc"
           inkscape:connector-curvature="0"
           id="path3936"
           d="m 263.64533,198.9312 c -5.2461,0 -4.55966,-17.71875 -8.84375,-17.71875 -4.28409,0 -3.59765,17.71875 -8.84375,17.71875"
           style="fill:none;stroke:#000000;stroke-width:1px;stroke-linecap:butt;stroke-linejoin:miter;stroke-opacity:1"
           transform="translate(0,-2.5390623e-6)" />
        <path
           style="fill:none;stroke:#000000;stroke-width:1px;stroke-linecap:butt;stroke-linejoin:miter;stroke-opacity:1"
           d="m 299.08273,198.9311 c 5.2461,0 4.55966,17.71875 8.84375,17.71875 4.28409,0 3.59765,-17.71875 8.84375,-17.71875"
           id="path3947"
           inkscape:connector-curvature="0"
           sodipodi:nodetypes="ccc"
           transform="translate(0,-2.5390623e-6)" />
      </g>
      <g
         transform="translate(-220.62782,-173.41319)"
         id="g4085"
         inkscape:label="b20"
         style="display:none">
        <path
           style="fill:none;stroke:#000000;stroke-width:1px;stroke-linecap:butt;stroke-linejoin:miter;stroke-opacity:1"
           d="m 245.95782,198.9312 c -5.2461,0 -4.55966,-17.71875 -8.84375,-17.71875 -4.28409,0 -3.59765,17.71875 -8.84375,17.71875"
           id="path4087"
           inkscape:connector-curvature="0"
           sodipodi:nodetypes="ccc" />
        <path
           sodipodi:nodetypes="ccc"
           inkscape:connector-curvature="0"
           id="path4089"
           d="m 316.74118,198.9311 c 5.2461,0 4.55966,17.71875 8.84375,17.71875 4.28409,0 3.59765,-17.71875 8.84375,-17.71875"
           style="fill:none;stroke:#000000;stroke-width:1px;stroke-linecap:butt;stroke-linejoin:miter;stroke-opacity:1" />
      </g>
      <g
         transform="translate(-220.62782,-173.41319)"
         style="display:none"
         inkscape:label="b14"
         id="layer10">
        <path
           style="fill:none;stroke:#000000;stroke-width:1px;stroke-linecap:butt;stroke-linejoin:miter;stroke-opacity:1;display:inline"
           d="m 263.64533,198.9311 c -5.2461,0 -4.55966,17.71875 -8.84375,17.71875 -4.28409,0 -3.59765,-17.71875 -8.84375,-17.71875"
           id="path4073"
           inkscape:connector-curvature="0"
           sodipodi:nodetypes="ccc" />
        <path
           sodipodi:nodetypes="ccc"
           inkscape:connector-curvature="0"
           id="path4075"
           d="m 299.08273,198.9312 c 5.2461,0 4.55966,-17.71875 8.84375,-17.71875 4.28409,0 3.59765,17.71875 8.84375,17.71875"
           style="fill:none;stroke:#000000;stroke-width:1px;stroke-linecap:butt;stroke-linejoin:miter;stroke-opacity:1;display:inline" />
      </g>
      <g
         transform="translate(-220.62782,-173.41319)"
         id="g4079"
         inkscape:label="b24"
         style="display:none">
        <path
           sodipodi:nodetypes="ccc"
           inkscape:connector-curvature="0"
           id="path4081"
           d="m 245.95783,198.9312 c -5.2461,0 -4.55966,17.71875 -8.84375,17.71875 -4.28409,0 -3.59765,-17.71875 -8.84375,-17.71875"
           style="fill:none;stroke:#000000;stroke-width:1px;stroke-linecap:butt;stroke-linejoin:miter;stroke-opacity:1;display:inline" />
        <path
           style="fill:none;stroke:#000000;stroke-width:1px;stroke-linecap:butt;stroke-linejoin:miter;stroke-opacity:1;display:inline"
           d="m 316.77023,198.9311 c 5.2461,0 4.55966,-17.71875 8.84375,-17.71875 4.28409,0 3.59765,17.71875 8.84375,17.71875"
           id="path4083"
           inkscape:connector-curvature="0"
           sodipodi:nodetypes="ccc" />
      </g>
      <g
         transform="translate(-114.32861,-173.41319)"
         style="display:inline"
         inkscape:label="move"
         id="g3703">
        <path
           sodipodi:nodetypes="czzc"
           inkscape:connector-curvature="0"
           id="path3705"
           d="m 263.64533,198.9312 c 4.39408,0 12.87622,-3.02246 8.97978,-8.78248 -3.89644,-5.76002 9.7487,-11.62889 14.14517,-8.06132 4.39647,3.56757 -5.40625,16.84375 -5.40625,16.84375"
           style="fill:none;stroke:#000000;stroke-width:1px;stroke-linecap:butt;stroke-linejoin:miter;stroke-opacity:1;display:inline"
           transform="translate(0,-2.5390623e-6)" />
        <use
           height="1052.3622"
           width="744.09448"
           transform="matrix(-1,0,0,-1,562.72806,397.8623)"
           id="use3707"
           xlink:href="#path3928"
           y="0"
           x="0"
           style="display:inline" />
        <path
           inkscape:connector-curvature="0"
           sodipodi:insensitive="true"
           id="path3709"
           d="m 228.21443,304.35535 106.29921,0"
           style="fill:none;stroke:#000000;stroke-width:1px;stroke-linecap:butt;stroke-linejoin:miter;stroke-opacity:1" />
        <text
           transform="scale(1.0556955,0.94724283)"
           sodipodi:linespacing="125%"
           id="text3711"
           y="298.07895"
           x="266.47726"
           style="font-size:87.67693329px;font-style:normal;font-variant:normal;font-weight:normal;font-stretch:normal;text-align:center;line-height:125%;letter-spacing:0px;word-spacing:0px;text-anchor:middle;fill:#ff0000;fill-opacity:1;stroke:none;font-family:Asana Math;-inkscape-font-specification:Asana Math"
           xml:space="preserve"><tspan
             style="font-style:normal;font-variant:normal;font-weight:normal;font-stretch:normal;font-family:Asana Math;-inkscape-font-specification:Asana Math"
             y="298.07895"
             x="266.47726"
             id="tspan3713"
             sodipodi:role="line">u</tspan></text>
      </g>
      <g
         transform="translate(106.29921,0)"
         style="display:inline"
         inkscape:label="divide"
         id="g3715">
        <path
           style="fill:none;stroke:#000000;stroke-width:1px;stroke-linecap:butt;stroke-linejoin:miter;stroke-opacity:1;display:inline"
           d="m 334.51364,198.93115 c 0,0 0,28.3769 0,34.18103 0,5.80413 2.10183,17.90232 5.9375,3.58739 3.83567,-14.31493 5.9375,10.57972 5.9375,14.94368"
           id="path3717"
           inkscape:connector-curvature="0"
           sodipodi:nodetypes="czzc"
           transform="translate(-220.62782,-173.41319)" />
        <path
           sodipodi:nodetypes="czzc"
           inkscape:connector-curvature="0"
           id="path3719"
           d="m 334.51364,304.35535 c 0,0 0,-28.3769 0,-34.18103 0,-5.80413 2.10183,-17.90232 5.9375,-3.58739 3.83567,14.31493 5.9375,-10.57972 5.9375,-14.94368"
           style="fill:none;stroke:#000000;stroke-width:1px;stroke-linecap:butt;stroke-linejoin:miter;stroke-opacity:1;display:inline"
           transform="translate(-220.62782,-173.41319)" />
      </g>
      <g
         transform="translate(-114.32861,-173.41319)"
         style="display:inline"
         inkscape:label="b14"
         id="g3721">
        <path
           style="fill:none;stroke:#000000;stroke-width:1px;stroke-linecap:butt;stroke-linejoin:miter;stroke-opacity:1;display:inline"
           d="m 263.64533,198.9311 c -5.2461,0 -4.55966,17.71875 -8.84375,17.71875 -4.28409,0 -3.59765,-17.71875 -8.84375,-17.71875"
           id="path3723"
           inkscape:connector-curvature="0"
           sodipodi:nodetypes="ccc" />
        <path
           sodipodi:nodetypes="ccc"
           inkscape:connector-curvature="0"
           id="path3725"
           d="m 299.08273,198.9312 c 5.2461,0 4.55966,-17.71875 8.84375,-17.71875 4.28409,0 3.59765,17.71875 8.84375,17.71875"
           style="fill:none;stroke:#000000;stroke-width:1px;stroke-linecap:butt;stroke-linejoin:miter;stroke-opacity:1;display:inline" />
      </g>
      <g
         transform="translate(-114.32861,-173.41319)"
         id="g3727"
         inkscape:label="b22"
         style="display:inline">
        <path
           sodipodi:nodetypes="ccc"
           inkscape:connector-curvature="0"
           id="path3729"
           d="m 245.99045,198.9323 c -5.2461,0 -12.22568,-17.71875 -16.50977,-17.71875 -4.28409,0 4.06837,17.71875 -1.17773,17.71875"
           style="fill:none;stroke:#000000;stroke-width:1px;stroke-linecap:butt;stroke-linejoin:miter;stroke-opacity:1;display:inline" />
        <path
           style="fill:none;stroke:#000000;stroke-width:1px;stroke-linecap:butt;stroke-linejoin:miter;stroke-opacity:1;display:inline"
           d="m 316.7702,198.9311 c 5.2461,0 12.22568,17.71875 16.50977,17.71875 4.28409,0 -4.06837,-17.71875 1.17773,-17.71875"
           id="path3731"
           inkscape:connector-curvature="0"
           sodipodi:nodetypes="ccc" />
      </g>
      <g
         transform="translate(-8.0294008,-173.41319)"
         style="display:inline"
         inkscape:label="move"
         id="g3733">
        <path
           sodipodi:nodetypes="czzc"
           inkscape:connector-curvature="0"
           id="path3735"
           d="m 263.64533,198.9312 c 4.39408,0 12.87622,-3.02246 8.97978,-8.78248 -3.89644,-5.76002 9.7487,-11.62889 14.14517,-8.06132 4.39647,3.56757 -5.40625,16.84375 -5.40625,16.84375"
           style="fill:none;stroke:#000000;stroke-width:1px;stroke-linecap:butt;stroke-linejoin:miter;stroke-opacity:1;display:inline"
           transform="translate(0,-2.5390623e-6)" />
        <use
           height="1052.3622"
           width="744.09448"
           transform="matrix(-1,0,0,-1,562.72806,397.8623)"
           id="use3737"
           xlink:href="#path3928"
           y="0"
           x="0"
           style="display:inline" />
        <path
           inkscape:connector-curvature="0"
           sodipodi:insensitive="true"
           id="path3739"
           d="m 228.21443,304.35535 106.29921,0"
           style="fill:none;stroke:#000000;stroke-width:1px;stroke-linecap:butt;stroke-linejoin:miter;stroke-opacity:1" />
        <text
           transform="scale(1.0556955,0.94724283)"
           sodipodi:linespacing="125%"
           id="text3741"
           y="298.07895"
           x="266.47726"
           style="font-size:87.67693329px;font-style:normal;font-variant:normal;font-weight:normal;font-stretch:normal;text-align:center;line-height:125%;letter-spacing:0px;word-spacing:0px;text-anchor:middle;fill:#ff0000;fill-opacity:1;stroke:none;font-family:Asana Math;-inkscape-font-specification:Asana Math"
           xml:space="preserve"><tspan
             style="font-style:normal;font-variant:normal;font-weight:normal;font-stretch:normal;font-family:Asana Math;-inkscape-font-specification:Asana Math"
             y="298.07895"
             x="266.47726"
             id="tspan3743"
             sodipodi:role="line">r</tspan></text>
      </g>
      <g
         transform="translate(212.59842,0)"
         style="display:inline"
         inkscape:label="divide"
         id="g3745">
        <path
           style="fill:none;stroke:#000000;stroke-width:1px;stroke-linecap:butt;stroke-linejoin:miter;stroke-opacity:1;display:inline"
           d="m 334.51364,198.93115 c 0,0 0,28.3769 0,34.18103 0,5.80413 2.10183,17.90232 5.9375,3.58739 3.83567,-14.31493 5.9375,10.57972 5.9375,14.94368"
           id="path3747"
           inkscape:connector-curvature="0"
           sodipodi:nodetypes="czzc"
           transform="translate(-220.62782,-173.41319)" />
        <path
           sodipodi:nodetypes="czzc"
           inkscape:connector-curvature="0"
           id="path3749"
           d="m 334.51364,304.35535 c 0,0 0,-28.3769 0,-34.18103 0,-5.80413 2.10183,-17.90232 5.9375,-3.58739 3.83567,14.31493 5.9375,-10.57972 5.9375,-14.94368"
           style="fill:none;stroke:#000000;stroke-width:1px;stroke-linecap:butt;stroke-linejoin:miter;stroke-opacity:1;display:inline"
           transform="translate(-220.62782,-173.41319)" />
      </g>
      <g
         transform="translate(-8.0294008,-173.41319)"
         style="display:inline"
         inkscape:label="b11"
         id="g3751">
        <path
           sodipodi:nodetypes="czc"
           inkscape:connector-curvature="0"
           id="path3753"
           d="m 263.64533,198.9312 c -17.50196,0 10.03995,-11.37109 -8.84375,-11.37109 -18.8837,0 8.75587,11.37109 -8.84375,11.37109"
           style="fill:none;stroke:#000000;stroke-width:1px;stroke-linecap:butt;stroke-linejoin:miter;stroke-opacity:1;display:inline"
           transform="translate(0,-5.0781246e-6)" />
        <path
           style="fill:none;stroke:#000000;stroke-width:1px;stroke-linecap:butt;stroke-linejoin:miter;stroke-opacity:1;display:inline"
           d="m 299.08273,198.9311 c 17.50195,0 -10.03996,11.37109 8.84375,11.37109 18.8837,0 -8.75587,-11.37109 8.84375,-11.37109"
           id="path3755"
           inkscape:connector-curvature="0"
           sodipodi:nodetypes="czc"
           transform="translate(0,-5.0781246e-6)" />
      </g>
      <g
         transform="translate(-8.0294008,-173.41319)"
         id="g3757"
         inkscape:label="b22"
         style="display:inline">
        <path
           sodipodi:nodetypes="ccc"
           inkscape:connector-curvature="0"
           id="path3759"
           d="m 245.99045,198.9323 c -5.2461,0 -12.22568,-17.71875 -16.50977,-17.71875 -4.28409,0 4.06837,17.71875 -1.17773,17.71875"
           style="fill:none;stroke:#000000;stroke-width:1px;stroke-linecap:butt;stroke-linejoin:miter;stroke-opacity:1;display:inline" />
        <path
           style="fill:none;stroke:#000000;stroke-width:1px;stroke-linecap:butt;stroke-linejoin:miter;stroke-opacity:1;display:inline"
           d="m 316.7702,198.9311 c 5.2461,0 12.22568,17.71875 16.50977,17.71875 4.28409,0 -4.06837,-17.71875 1.17773,-17.71875"
           id="path3761"
           inkscape:connector-curvature="0"
           sodipodi:nodetypes="ccc" />
      </g>
      <g
         transform="translate(98.269809,-173.41319)"
         style="display:inline"
         inkscape:label="move"
         id="g3763">
        <path
           sodipodi:nodetypes="czzc"
           inkscape:connector-curvature="0"
           id="path3765"
           d="m 263.64533,198.9312 c 4.39408,0 12.87622,-3.02246 8.97978,-8.78248 -3.89644,-5.76002 9.7487,-11.62889 14.14517,-8.06132 4.39647,3.56757 -5.40625,16.84375 -5.40625,16.84375"
           style="fill:none;stroke:#000000;stroke-width:1px;stroke-linecap:butt;stroke-linejoin:miter;stroke-opacity:1;display:inline"
           transform="translate(0,-2.5390623e-6)" />
        <use
           height="1052.3622"
           width="744.09448"
           transform="matrix(-1,0,0,-1,562.72806,397.8623)"
           id="use3767"
           xlink:href="#path3928"
           y="0"
           x="0"
           style="display:inline" />
        <path
           inkscape:connector-curvature="0"
           sodipodi:insensitive="true"
           id="path3769"
           d="m 228.21443,304.35535 106.29921,0"
           style="fill:none;stroke:#000000;stroke-width:1px;stroke-linecap:butt;stroke-linejoin:miter;stroke-opacity:1" />
        <text
           transform="scale(1.0556955,0.94724283)"
           sodipodi:linespacing="125%"
           id="text3771"
           y="298.07895"
           x="266.47726"
           style="font-size:87.67693329px;font-style:normal;font-variant:normal;font-weight:normal;font-stretch:normal;text-align:center;line-height:125%;letter-spacing:0px;word-spacing:0px;text-anchor:middle;fill:#ff0000;fill-opacity:1;stroke:none;font-family:Asana Math;-inkscape-font-specification:Asana Math"
           xml:space="preserve"><tspan
             style="font-style:normal;font-variant:normal;font-weight:normal;font-stretch:normal;font-family:Asana Math;-inkscape-font-specification:Asana Math"
             y="298.07895"
             x="266.47726"
             id="tspan3773"
             sodipodi:role="line">m</tspan></text>
      </g>
      <g
         transform="translate(318.89763,0)"
         style="display:inline"
         inkscape:label="divide"
         id="g3775">
        <path
           style="fill:none;stroke:#000000;stroke-width:1px;stroke-linecap:butt;stroke-linejoin:miter;stroke-opacity:1;display:inline"
           d="m 334.51364,198.93115 c 0,0 0,28.3769 0,34.18103 0,5.80413 2.10183,17.90232 5.9375,3.58739 3.83567,-14.31493 5.9375,10.57972 5.9375,14.94368"
           id="path3777"
           inkscape:connector-curvature="0"
           sodipodi:nodetypes="czzc"
           transform="translate(-220.62782,-173.41319)" />
        <path
           sodipodi:nodetypes="czzc"
           inkscape:connector-curvature="0"
           id="path3779"
           d="m 334.51364,304.35535 c 0,0 0,-28.3769 0,-34.18103 0,-5.80413 2.10183,-17.90232 5.9375,-3.58739 3.83567,14.31493 5.9375,-10.57972 5.9375,-14.94368"
           style="fill:none;stroke:#000000;stroke-width:1px;stroke-linecap:butt;stroke-linejoin:miter;stroke-opacity:1;display:inline"
           transform="translate(-220.62782,-173.41319)" />
      </g>
      <g
         transform="translate(98.269809,-173.41319)"
         style="display:inline"
         inkscape:label="b14"
         id="g3781">
        <path
           style="fill:none;stroke:#000000;stroke-width:1px;stroke-linecap:butt;stroke-linejoin:miter;stroke-opacity:1;display:inline"
           d="m 263.64533,198.9311 c -5.2461,0 -4.55966,17.71875 -8.84375,17.71875 -4.28409,0 -3.59765,-17.71875 -8.84375,-17.71875"
           id="path3783"
           inkscape:connector-curvature="0"
           sodipodi:nodetypes="ccc" />
        <path
           sodipodi:nodetypes="ccc"
           inkscape:connector-curvature="0"
           id="path3785"
           d="m 299.08273,198.9312 c 5.2461,0 4.55966,-17.71875 8.84375,-17.71875 4.28409,0 3.59765,17.71875 8.84375,17.71875"
           style="fill:none;stroke:#000000;stroke-width:1px;stroke-linecap:butt;stroke-linejoin:miter;stroke-opacity:1;display:inline" />
      </g>
      <g
         transform="translate(98.269809,-173.41319)"
         id="g3787"
         inkscape:label="b21"
         style="display:inline">
        <path
           style="fill:none;stroke:#000000;stroke-width:1px;stroke-linecap:butt;stroke-linejoin:miter;stroke-opacity:1;display:inline"
           d="m 245.95782,198.9312 c -17.50196,0 10.03995,-11.37109 -8.84375,-11.37109 -18.8837,0 8.75587,11.37109 -8.84375,11.37109"
           id="path3789"
           inkscape:connector-curvature="0"
           sodipodi:nodetypes="czc" />
        <path
           sodipodi:nodetypes="czc"
           inkscape:connector-curvature="0"
           id="path3791"
           d="m 316.7702,198.9311 c 17.50195,0 -10.03996,11.37109 8.84375,11.37109 18.8837,0 -8.75587,-11.37109 8.84375,-11.37109"
           style="fill:none;stroke:#000000;stroke-width:1px;stroke-linecap:butt;stroke-linejoin:miter;stroke-opacity:1;display:inline" />
      </g>
    </g>
    <path
       style="fill:#000000;fill-opacity:0.23148151;stroke:none"
       d="m 494.875,169.28125 c -0.87256,0.009 -1.7803,0.26292 -2.59375,0.78125 L 451,196.34375 c -1.2855,0.81912 -2.03392,2.10516 -2.1875,3.4375 l -10.3125,6.5625 c -2.1692,1.38221 -2.86963,4.09141 -1.59375,6.09375 l 1.4375,2.28125 -20.625,13.125 c -2.1692,1.38221 -2.90088,4.12266 -1.625,6.125 l 1.4375,2.25 -20.625,13.15625 c -2.1692,1.38221 -2.90088,4.09141 -1.625,6.09375 l 1.4375,2.28125 -20.625,13.125 c -2.1692,1.38221 -2.86963,4.12266 -1.59375,6.125 l 1.4375,2.25 -20.65625,13.15625 c -2.1692,1.38221 -2.86963,4.09141 -1.59375,6.09375 l 1.4375,2.28125 -20.625,13.125 c -2.1692,1.38221 -2.90088,4.12266 -1.625,6.125 l 2.0625,3.21875 -13.21875,8.40625 c -2.1692,1.38221 -2.90088,4.12266 -1.625,6.125 l 0.84375,1.3125 -3.5,2.21875 c -2.1692,1.38221 -2.90088,4.09141 -1.625,6.09375 l 2.875,4.53125 c 1.27588,2.00234 4.04955,2.50721 6.21875,1.125 l 7,-4.46875 c 0.1873,0.0707 0.36644,0.1498 0.5625,0.1875 0.58013,0.11157 1.1941,0.0597 1.78125,0.125 0.55021,0.0611 1.08033,0.15097 1.625,0.25 0.55243,0.10044 1.47159,0.31344 2.03125,0.5 0.21045,0.0842 0.41456,0.16582 0.625,0.25 0.0421,0.0421 0.0697,0.1029 0.125,0.125 0.16113,0.0645 0.37012,0.0605 0.53125,0.125 0.0553,0.0221 0.0697,0.1029 0.125,0.125 0.16113,0.0644 0.33165,0.0829 0.5,0.125 0.16836,0.0421 0.32821,0.10046 0.5,0.125 0.2578,0.0368 0.62948,-0.0491 0.875,0 0.0584,0.0117 0.0672,0.14181 0.125,0.15625 0.0275,0.007 0.56755,-0.0287 0.625,0 0.0532,0.0266 0.0717,0.0983 0.125,0.125 0.0376,0.0188 0.11858,-0.0188 0.15625,0 0.0532,0.0266 0.0717,0.0983 0.125,0.125 0.0574,0.0287 0.59747,-0.007 0.625,0 0.11549,0.0289 0.13326,0.22665 0.25,0.25 0.16509,0.033 0.33164,0 0.5,0 l 1,0 2.78125,0 2.65625,0 1.25,0 c 0.16023,0 0.3735,0.0263 0.53125,0 0.21169,-0.0353 0.41204,-0.0983 0.625,-0.125 0.12529,-0.0157 0.24873,0 0.375,0 l 0.75,0 c 0.12627,0 0.25045,0.0208 0.375,0 0.13129,-0.0219 0.24448,-0.0989 0.375,-0.125 0.0825,-0.0165 0.19707,0 0.28125,0 l 1.125,0 2.90625,0 1.5,0 0.5,0 c 0.12627,0 0.28375,0.0306 0.40625,0 0.0577,-0.0144 0.0666,-0.11333 0.125,-0.125 0.16509,-0.033 0.33164,0 0.5,0 l 0.875,0 3.03125,0 c 1.30026,0 -0.57959,0.0412 0.75,-0.125 0.20882,-0.0261 0.44581,0 0.65625,0 l 0.625,0 2,0 6.4375,0 0.65625,0 0.625,0 0.625,0 c 0.16836,0 0.33267,-0.0186 0.5,0 0.2133,0.0237 0.4117,0.1013 0.625,0.125 0.38936,0.0433 0.56798,0.036 0.625,0.0312 0.0682,0.021 0.0915,0.0464 0.28125,0.0937 0.0408,0.0102 0.0829,0 0.125,0 l 0.5,0 1,0 c 0.0306,0 0.37094,-0.004 0.375,0 0.29463,-0.0842 0.60578,-0.18991 0.90625,-0.25 0.12381,-0.0248 0.24873,0 0.375,0 l 0.5,0 0.5,0 c 0.12627,0 0.2525,-0.0306 0.375,0 0.0578,0.0144 0.0666,0.11333 0.125,0.125 0.16509,0.033 0.33667,-0.0408 0.5,0 0.0408,0.0102 -0.0298,0.0952 0,0.125 0.005,0.005 0.48488,0 0.53125,0 l 1.75,0 c 0.12234,0 0.67471,-0.0251 0.75,0 0.19436,0.0648 0.26563,0.10632 0.3125,0.125 -0.0919,-0.0111 -0.22644,-0.0195 0.0625,0.125 0.12627,0.0421 0.27998,0.0829 0.40625,0.125 0.0421,0.0421 0.0717,0.0983 0.125,0.125 0.11905,0.0595 0.26425,0.0511 0.375,0.125 0.035,0.0233 -0.0298,0.0952 0,0.125 0.0298,0.0298 0.0873,-0.0188 0.125,0 0.0532,0.0266 0.0717,0.0983 0.125,0.125 0.0376,0.0188 0.0952,-0.0298 0.125,0 0.0298,0.0298 -0.0376,0.10618 0,0.125 -0.35148,0.60645 -0.5625,1.29694 -0.5625,2.03125 l 0,22.25 c 0,2.37429 2.08411,4.3125 4.65625,4.3125 l -6,0 c -2.57214,0 -4.65625,1.90696 -4.65625,4.28125 l 0,22.28125 c 0,2.37429 2.08411,4.28125 4.65625,4.28125 l 2,0 c -2.57214,0 -4.65625,1.90696 -4.65625,4.28125 l 0,22.28125 c 0,2.37429 2.08411,4.28125 4.65625,4.28125 l 6,0 c -2.57214,0 -4.65625,1.90696 -4.65625,4.28125 l 0,22.28125 c 0,2.37429 2.08411,4.28125 4.65625,4.28125 l -6,0 c -2.57214,0 -4.65625,1.90696 -4.65625,4.28125 l 0,22.28125 c 0,2.37429 2.08411,4.28125 4.65625,4.28125 l 2,0 c -2.57214,0 -4.65625,1.90696 -4.65625,4.28125 l 0,22.28125 c 0,2.37429 2.08411,4.28125 4.65625,4.28125 l -2,0 c -2.57214,0 -4.65625,1.90696 -4.65625,4.28125 l 0,22.28125 c 0,2.37429 2.08411,4.28125 4.65625,4.28125 l 4,0 c -2.57214,0 -4.65625,1.90696 -4.65625,4.28125 l 0,22.28125 c 0,2.37429 2.08411,4.28125 4.65625,4.28125 l -2,0 c -2.57214,0 -4.65625,1.93821 -4.65625,4.3125 l 0,22.25 c 0,2.37429 2.08411,4.28125 4.65625,4.28125 l 4,0 c -2.57214,0 -4.65625,1.93821 -4.65625,4.3125 l 0,22.25 c 0,2.37429 2.08411,4.3125 4.65625,4.3125 l -10,0 c -2.57214,0 -4.65625,1.90696 -4.65625,4.28125 l 0,22.28125 c 0,2.37429 2.08411,4.28125 4.65625,4.28125 l 16.21875,0 c -2.57214,0 -4.65625,1.90696 -4.65625,4.28125 l 0,22.28125 c 0,2.37429 2.08411,4.28125 4.65625,4.28125 l -12.21875,0 c -2.57214,0 -4.65625,1.90696 -4.65625,4.28125 l 0,22.28125 c 0,2.37429 2.08411,4.28125 4.65625,4.28125 l 4,0 c -2.57214,0 -4.65625,1.90696 -4.65625,4.28125 l 0,22.28125 c 0,2.37429 2.08411,4.28125 4.65625,4.28125 l 45.28125,0 c 1.95597,0 3.62284,-1.11507 4.3125,-2.6875 0.28612,0.0234 0.55728,0.10454 0.84375,0.125 0.29388,0.021 0.61162,0 0.90625,0 l 1,0 c 0.25254,0 0.4985,-0.0229 0.75,0 0.21374,0.0194 0.41169,0.1013 0.625,0.125 0.1425,0.0158 1.21921,-0.031 1.28125,0 0.0532,0.0266 0.0717,0.0983 0.125,0.125 0.0332,0.0166 0.43397,0 0.5,0 l 1.125,0 3.8125,0 2.53125,0 0.875,0 c 0.16836,0 0.33333,-0.0238 0.5,0 0.13176,0.0188 0.24323,0.10617 0.375,0.125 0.16666,0.0238 0.33491,-0.033 0.5,0 0.0584,0.0117 0.066,0.11658 0.125,0.125 0.25,0.0357 0.52974,-0.0229 0.78125,0 0.21373,0.0194 0.41145,0.10364 0.625,0.125 0.2094,0.0209 0.41559,-0.0209 0.625,0 0.21355,0.0213 0.41145,0.1349 0.625,0.15625 0.37693,0.0377 0.74912,-0.047 1.125,0 0.1722,0.0215 0.36007,0.0964 0.53125,0.125 0.083,0.0138 0.16666,-0.0119 0.25,0 0.21246,0.0303 0.41204,0.0983 0.625,0.125 0.1253,0.0157 0.24873,0 0.375,0 l 0.75,0 2.40625,0 3.40625,0 c 0.46299,0 0.94444,0.033 1.40625,0 0.33848,-0.0242 0.66153,-0.10082 1,-0.125 0.2519,-0.018 0.4985,0.0229 0.75,0 0.21373,-0.0194 0.41145,-0.10364 0.625,-0.125 0.20941,-0.0209 0.4458,0 0.65625,0 0.33225,0 0.79391,0.0276 1.125,0 0.33817,-0.0282 0.66166,-0.13023 1,-0.15625 0.20983,-0.0162 0.41455,0 0.625,0 l 2.40625,0 5.4375,0 4.8125,0 c 0.58925,0 1.16165,0.0327 1.75,0 0.46418,-0.0258 0.94239,-0.0941 1.40625,-0.125 0.16799,-0.0112 0.33164,0 0.5,0 0.0842,0 0.16745,0.0165 0.25,0 0.13051,-0.0261 0.24588,-0.0927 0.375,-0.125 0.10976,-0.0274 0.37515,0 0.5,0 0.46299,0 0.94444,0.033 1.40625,0 0.29686,-0.0212 0.57999,-0.0856 0.875,-0.125 0.33636,-0.0448 0.66183,-0.0968 1,-0.125 l 0.5,0 c 0,-0.0421 -0.0298,-0.0952 0,-0.125 0.16836,-0.16836 0.125,0.21172 0.125,-0.125 0.33672,0.12627 0.68085,0.29414 1.03125,0.375 0.20506,0.0473 0.41455,0 0.625,0 l 0.875,0 2.90625,0 7.3125,0 28.8125,0 10.21875,0 1.96875,0 c 0.77611,1.37124 2.32752,2.3125 4.125,2.3125 l 45.28125,0 c 2.57214,0 4.65625,-1.90696 4.65625,-4.28125 l 0,-22.28125 c 0,-2.37429 -2.08411,-4.28125 -4.65625,-4.28125 l -6,0 c 2.57214,0 4.65625,-1.90696 4.65625,-4.28125 l 0,-22.28125 c 0,-2.37429 -2.08411,-4.28125 -4.65625,-4.28125 l 2,0 c 2.57214,0 4.65625,-1.90696 4.65625,-4.28125 l 0,-22.28125 c 0,-2.37429 -2.08411,-4.28125 -4.65625,-4.28125 l 6,0 c 2.57214,0 4.65625,-1.90696 4.65625,-4.28125 l 0,-22.28125 c 0,-2.37429 -2.08411,-4.28125 -4.65625,-4.28125 l -6,0 c 2.57214,0 4.65625,-1.93821 4.65625,-4.3125 l 0,-22.25 c 0,-2.37429 -2.08411,-4.3125 -4.65625,-4.3125 l 2,0 c 2.57214,0 4.65625,-1.90696 4.65625,-4.28125 l 0,-22.25 c 0,-2.37429 -2.08411,-4.3125 -4.65625,-4.3125 l -2,0 c 2.57214,0 4.65625,-1.90696 4.65625,-4.28125 l 0,-22.28125 c 0,-2.37429 -2.08411,-4.28125 -4.65625,-4.28125 l 4,0 c 2.57214,0 4.65625,-1.90696 4.65625,-4.28125 l 0,-22.28125 c 0,-2.37429 -2.08411,-4.28125 -4.65625,-4.28125 l -2,0 c 2.57214,0 4.65625,-1.90696 4.65625,-4.28125 l 0,-22.28125 c 0,-2.37429 -2.08411,-4.28125 -4.65625,-4.28125 l 4,0 c 2.57214,0 4.65625,-1.90696 4.65625,-4.28125 l 0,-22.28125 c 0,-2.37429 -2.08411,-4.28125 -4.65625,-4.28125 l -10,0 c 2.57214,0 4.65625,-1.90696 4.65625,-4.28125 l 0,-22.28125 c 0,-2.37429 -2.08411,-4.28125 -4.65625,-4.28125 l 6,0 c 2.57214,0 4.65625,-1.90696 4.65625,-4.28125 l 0,-22.28125 c 0,-2.37429 -2.08411,-4.28125 -4.65625,-4.28125 l -2,0 c 2.57214,0 4.65625,-1.90696 4.65625,-4.28125 l 0,-22.28125 c 0,-2.37429 -2.08411,-4.28125 -4.65625,-4.28125 l 4,0 c 2.57214,0 4.65625,-1.93821 4.65625,-4.3125 l 0,-22.25 c 0,-0.69392 -0.1838,-1.35558 -0.5,-1.9375 0.1777,0.0922 0.34572,0.20836 0.53125,0.28125 0.61941,0.24334 1.28313,0.39133 1.90625,0.625 0.72454,0.27171 1.39436,0.65138 2.125,0.90625 1.08107,0.37712 2.197,0.63213 3.28125,1 3.20367,1.08696 3.7622,1.32548 3.8125,1.375 -0.0942,-0.006 -0.22603,-0.0526 3.53125,1.03125 1.01102,0.29164 2.00026,0.66459 3.03125,0.875 1.03839,0.21191 2.10432,0.24619 3.15625,0.375 1.01047,0.12373 2.02005,0.25742 3.03125,0.375 3.6398,0.42323 1.11374,0.10977 4.03125,0.375 0.37957,0.0345 0.74543,0.0905 1.125,0.125 0.2515,0.0229 0.52871,0 0.78125,0 l 1.25,0 3.40625,0 3.90625,0 1.53125,0 c 0.16836,0 0.33538,0.0353 0.5,0 0.42967,-0.0921 0.8248,-0.26408 1.25,-0.375 0.54336,-0.14175 1.10807,-0.25318 1.65625,-0.375 0.2095,-0.0466 0.42962,-0.0362 0.625,-0.125 0.27631,-0.12559 0.47853,-0.36427 0.75,-0.5 0.15521,-0.0776 0.38686,-0.0287 0.53125,-0.125 0.36692,-0.24462 0.84602,-0.94028 1.125,-1.28125 0.36602,-0.44736 0.79893,-0.99911 1.25,-1.375 1.40744,-1.17286 0.35145,-0.23147 1.53125,-0.875 0.26646,-0.14533 0.48647,-0.34942 0.75,-0.5 0.0365,-0.0209 0.0834,0.007 0.125,0 0.21169,-0.0353 0.4214,-0.0884 0.625,-0.15625 0.0565,-0.0188 0.0717,-0.0983 0.125,-0.125 0.0376,-0.0188 0.0829,0 0.125,0 0.12627,0 0.28375,0.0306 0.40625,0 0.35033,-0.0876 -0.0124,-0.11261 0.125,-0.25 0.0298,-0.0298 0.0952,0.0298 0.125,0 0.0298,-0.0298 0,-0.0829 0,-0.125 0.0842,-0.12627 0.12373,-0.29082 0.25,-0.375 0.2841,-0.1894 0.40562,-0.2227 0.46875,-0.21875 0.0202,-0.0815 0.0367,-0.16716 0.15625,-0.40625 0.0188,-0.0377 0.0873,0.0188 0.125,0 0.10648,-0.0532 0.15094,-0.18396 0.25,-0.25 0.0783,-0.0522 0.17651,-0.0662 0.25,-0.125 0.0433,-0.0347 0.0821,-0.0849 0.125,-0.125 l 12.1875,7.78125 c 2.1692,1.38221 4.94287,0.87734 6.21875,-1.125 l 2.90625,-4.5 c 1.27588,-2.00234 0.5442,-4.74279 -1.625,-6.125 l -14.03125,-8.9375 0.65625,-1 c 1.27588,-2.00234 0.5442,-4.74279 -1.625,-6.125 l -20.625,-13.125 1.4375,-2.28125 c 1.27588,-2.00234 0.5442,-4.71154 -1.625,-6.09375 L 624.53125,297 l 1.4375,-2.25 c 1.27588,-2.00234 0.5442,-4.74279 -1.625,-6.125 l -15.15625,-9.65625 c 0.11722,-0.13814 0.24387,-0.28076 0.34375,-0.4375 l 2.875,-4.5 c 1.27588,-2.00234 0.5442,-4.74279 -1.625,-6.125 l -19.4375,-12.375 0.0312,-0.0625 c 1.27588,-2.00234 0.57545,-4.71154 -1.59375,-6.09375 l -20.65625,-13.15625 1.4375,-2.25 c 1.27588,-2.00234 0.57545,-4.74279 -1.59375,-6.125 L 534.5625,205.9375 c 0.78873,-1.91208 0.0121,-4.22646 -1.9375,-5.46875 L 501.1875,180.4375 c 0.99696,-1.43139 1.12375,-3.28067 0.1875,-4.75 l -2.875,-4.53125 c -0.79743,-1.25146 -2.17073,-1.89021 -3.625,-1.875 z m 165.5,183.3125 c -0.0599,0.24139 0.14159,0.009 0,0 z M 382.09375,350.9375 c 0,0.0316 -0.006,0.0685 0,0.0937 -0.002,-0.0275 0.0149,-0.0788 0,-0.0937 z m 53.34375,122.125 0.1875,0 c -9e-4,0.009 8.9e-4,0.0224 0,0.0312 -0.0641,-0.002 -0.12277,-0.0312 -0.1875,-0.0312 z"
       id="rect4676"
       inkscape:connector-curvature="0"
       sodipodi:nodetypes="ccccccccccccccccccccccccccccccccscccccccccccccccscccsccssccscccsccscscscccccsccccscsccscscccsssccccccsccscsscsssscssscsscsssscsscsssscsscsssscsscsssscsscsssscssssccssccccscccsccccccccccccsccsccccsccsccsscsccsccccsccsccccccssssscsscssscsssscsscsssscsscsssscsscsssscsscsssscsscsssccssscssssccscccsccccscsscccccsccscscccscccccccccccccccccccccccccccccccccccccccc" />
  </g>
</svg>
